<svg width="86" height="78" viewBox="0 0 86 78" xmlns="http://www.w3.org/2000/svg" xmlns:xlink="http://www.w3.org/1999/xlink">
  <defs>
    <path d="M5 0C2.247 0 0 2.247 0 5v68c0 2.753 2.247 5 5 5h76c2.753 0 5-2.247 5-5V41c0-2.753-2.247-5-5-5H42V5c0-2.753-2.247-5-5-5H5zm66.313 28.405a.657.657 0 0 1-1.307-.123c0-8.66-6.692-15.75-15.201-16.324l2.043 3.575a.659.659 0 1 1-1.144.654l-2.615-4.577a.654.654 0 0 1 .245-.899l4.576-2.615a.654.654 0 0 1 .981.695.654.654 0 0 1-.327.45l-2.656 1.511c8.688 1.101 15.405 8.547 15.405 17.53v.123zM5 2h32c1.68 0 3 1.32 3 3v1H2V5c0-1.68 1.32-3 3-3zM2 8h38v56H2V8zm40 30h36v38H40.875c.666-.851 1.125-1.84 1.125-3V38zm38 0h1c1.68 0 3 1.32 3 3v32c0 1.68-1.32 3-3 3h-1V38zM2 66h38v7c0 1.21-.71 2.238-1.719 2.719a1 1 0 0 0-.343.281H5c-1.68 0-3-1.32-3-3v-7zm15.75 4a1.006 1.006 0 0 0 .219 2h6.062a1 1 0 1 0 0-2H17.97a1 1 0 0 0-.125 0 1.002 1.002 0 0 0-.094 0z" id="a"/>
  </defs>
  <g fill="none" fill-rule="evenodd">
    <mask id="b" fill="#fff">
      <use xlink:href="#a"/>
    </mask>
    <use fill="#686C6F" fill-rule="nonzero" xlink:href="#a"/>
    <path d="M42 36h44v42.002H37.007c3.567 0 4.993-3.732 4.993-4.556V36z" fill="#FFF" opacity=".429" mask="url(#b)"/>
  </g>
</svg>