<?xml version="1.0" encoding="UTF-8"?>
<svg width="27px" height="39px" viewBox="0 0 27 39" version="1.1" xmlns="http://www.w3.org/2000/svg" xmlns:xlink="http://www.w3.org/1999/xlink">
    <!-- Generator: Sketch 51.3 (57544) - http://www.bohemiancoding.com/sketch -->
    <title>Hand</title>
    <desc>Created with Sketch.</desc>
    <defs></defs>
    <g id="Design" stroke="none" stroke-width="1" fill="none" fill-rule="evenodd">
        <g id="Mobile-375x667" transform="translate(-174.000000, -1207.000000)" fill="#FFFFFF" fill-rule="nonzero">
            <g id="Butterflies-Intro" transform="translate(0.000000, 667.000000)">
                <g id="Hand" transform="translate(143.000000, 514.000000)">
                    <g transform="translate(31.000000, 25.000000)" id="Shape">
                        <path d="M23.4066176,15.315 C22.778155,15.3135465 22.1664265,15.5189665 21.6645221,15.9 C21.6640072,14.7468124 20.9920812,13.7011735 19.9478967,13.228619 C18.9037121,12.7560645 17.6814836,12.9444879 16.8253676,13.71 C16.404172,12.5631975 15.3193065,11.8013574 14.1055147,11.8 C13.4776892,11.8024913 12.8671633,12.0075074 12.3634191,12.385 L12.3634191,7.7 C12.4075186,6.62524555 11.8634901,5.61256155 10.9462198,5.06194846 C10.0289494,4.51133536 8.88594026,4.51133536 7.96866992,5.06194846 C7.05139957,5.61256155 6.50737112,6.62524555 6.55147059,7.7 L6.55147059,20.795 C5.77768576,19.2290061 4.05214707,18.3865577 2.35257353,18.745 L0.947977941,19.05 C0.796667611,19.0800679 0.663658163,19.1700357 0.578755986,19.2997422 C0.493853809,19.4294486 0.464158133,19.5880482 0.496323529,19.74 L3.13676471,32.24 C3.68685017,36.6258157 7.3895755,39.9146065 11.7777574,39.915 L17.5946691,39.915 C22.4035393,39.9012442 26.2969695,35.974504 26.3051471,31.13 L26.3051471,18.245 C26.30244,16.631835 25.0079025,15.3232422 23.4066176,15.315 Z M25.1487132,31.13 C25.1432447,35.3306029 21.7643853,38.734491 17.5946691,38.74 L11.7777574,38.74 C7.96284908,38.7340332 4.74860168,35.8688567 4.27830882,32.055 L1.75698529,20.055 L2.59577206,19.88 C3.27925909,19.7239938 3.99634206,19.8558309 4.58106618,20.245 C5.16737233,20.6283693 5.57811247,21.2310527 5.72261029,21.92 L6.56139706,26.525 C6.61185708,26.8306132 6.88498961,27.0472712 7.19172794,27.025 C7.49487517,27.0014398 7.72865813,26.7462989 7.72775735,26.44 L7.72775735,7.7 C7.79648725,6.78470753 8.55373144,6.07738202 9.46488971,6.07738202 C10.376048,6.07738202 11.1332922,6.78470753 11.2020221,7.7 L11.2020221,21.755 C11.200685,21.9105607 11.2614362,22.0601416 11.3706294,22.1701437 C11.4798227,22.2801458 11.6283038,22.3413469 11.7827206,22.34 C12.1034315,22.34 12.3634191,22.0780866 12.3634191,21.755 L12.3634191,14.73 C12.432149,13.8147075 13.1893932,13.107382 14.1005515,13.107382 C15.0117097,13.107382 15.7689539,13.8147075 15.8376838,14.73 L15.8376838,21.755 C15.8363468,21.9105607 15.8970979,22.0601416 16.0062912,22.1701437 C16.1154845,22.2801458 16.2639655,22.3413469 16.4183824,22.34 C16.5723932,22.34 16.7200961,22.2783662 16.8289982,22.1686575 C16.9379003,22.0589487 16.9990809,21.9101516 16.9990809,21.755 L16.9990809,15.9 C17.0678108,14.9847075 17.825055,14.277382 18.7362132,14.277382 C19.6473715,14.277382 20.4046157,14.9847075 20.4733456,15.9 L20.4733456,21.755 C20.4720086,21.9105607 20.5327597,22.0601416 20.641953,22.1701437 C20.7511462,22.2801458 20.8996273,22.3413469 21.0540441,22.34 C21.3747551,22.34 21.6347426,22.0780866 21.6347426,21.755 L21.6347426,18.255 C21.5854236,17.5982067 21.9053121,16.9688925 22.4631366,16.625307 C23.0209611,16.2817216 23.7227889,16.2817216 24.2806134,16.625307 C24.8384379,16.9688925 25.1583264,17.5982067 25.1090074,18.255 L25.1487132,31.13 Z"></path>
                        <path d="M15.2669118,7.7 C15.2669118,8.02308658 15.0069242,8.285 14.6862132,8.285 C14.5317964,8.28634692 14.3833154,8.22514579 14.2741221,8.11514367 C14.1649288,8.00514156 14.1041777,7.85556065 14.1055147,7.7 C14.1058124,7.38537493 14.0708483,7.07172181 14.0012868,6.765 C13.9420422,6.46320872 13.8522342,6.1683331 13.7332721,5.885 C13.6148998,5.60670184 13.4703039,5.34048288 13.3014706,5.09 C13.1313129,4.8391871 12.9403731,4.60334412 12.7306985,4.385 C12.518498,4.17465823 12.28941,3.98233743 12.0457721,3.81 C11.7916648,3.64910788 11.5281324,3.50384277 11.2566176,3.375 C10.9748045,3.25672309 10.6822548,3.16629862 10.3830882,3.105 C9.76551862,2.98027895 9.12951815,2.98027895 8.51194853,3.105 C8.21278199,3.16629862 7.92023223,3.25672309 7.63841912,3.375 C7.36690438,3.50384277 7.10337196,3.64910788 6.84926471,3.81 C6.60561299,3.9823193 6.37652354,4.17464131 6.16433824,4.385 C5.95466371,4.60334412 5.76372388,4.8391871 5.59356618,5.09 C5.42478489,5.34051491 5.2801918,5.6067287 5.16176471,5.885 C5.04280251,6.1683331 4.95299456,6.46320872 4.89375,6.765 C4.82744252,7.07209107 4.79580784,7.38574925 4.79944853,7.7 C4.79944853,8.02308658 4.53946094,8.285 4.21875,8.285 C4.06433318,8.28634692 3.91585213,8.22514579 3.80665885,8.11514367 C3.69746558,8.00514156 3.63671445,7.85556065 3.63805147,7.7 C3.63559791,7.2968855 3.67552644,6.89464258 3.75716912,6.5 C3.83052805,6.12552154 3.94367957,5.76008403 4.09466912,5.41 C4.24044795,5.05980668 4.4199846,4.72486862 4.63069853,4.41 C4.83869044,4.09902333 5.0764052,3.80930807 5.34044118,3.545 C5.60475596,3.2811697 5.89213111,3.04186883 6.19908088,2.83 C6.51431938,2.61936698 6.84633714,2.43540455 7.19172794,2.28 C7.54645411,2.13847986 7.91151311,2.02480762 8.28363971,1.94 C8.66162166,1.86924442 9.04576879,1.83741385 9.43014706,1.845 C9.82021403,1.84213929 10.2094948,1.88068536 10.5915441,1.96 C10.9636707,2.04480762 11.3287297,2.15847986 11.6834559,2.3 C12.0288467,2.45540455 12.3608644,2.63936698 12.6761029,2.85 C12.9857673,3.05821634 13.2734779,3.29779654 13.5347426,3.565 C14.0654377,4.09805196 14.4885023,4.72970851 14.7805147,5.425 C14.9330476,5.77796521 15.0462399,6.1468883 15.1180147,6.525 C15.2094909,6.91012463 15.2594127,7.30407546 15.2669118,7.7 Z"></path>
                    </g>
                </g>
            </g>
        </g>
    </g>
</svg>