<!-- https://elrumordelaluz.github.io/micro-svg-spreact/ -->
<svg width="0" height="0" class="hidden">
  <symbol viewBox="0 0 28 28" xmlns="http://www.w3.org/2000/svg" id="at">
    <path fill="#FFF" d="M-6-1h39v29H-6z"></path>
    <path fill="#DF0000" d="M-6 18h39v10H-6zm0-19h39V9H-6z"></path>
  </symbol>
  <symbol viewBox="0 0 28 28" xmlns="http://www.w3.org/2000/svg" id="au">
    <title>Language/au</title>
    <g fill="none" fill-rule="evenodd">
      <path fill="#006" fill-rule="nonzero" d="M-4-2h39v32H-4z"></path>
      <g fill-rule="nonzero">
        <path d="M-4-2v1.789L14.652 14H17v-1.789L-1.652-1.999-4-2zm21 0v1.789L-1.652 14H-4v-1.789L14.652-2H17z" fill="#FFF"></path>
        <path d="M4.75-2v16h3.5V-2h-3.5zM-4 3.333v5.334h21V3.333H-4z" fill="#FFF"></path>
        <path d="M-4 4.4v3.2h21V4.4H-4zM5.45-2v16h2.1V-2h-2.1zM-4 14l7-5.333h1.565l-7 5.333H-4zm0-16l7 5.333H1.435L-4-.807V-2zM8.435 3.333l7-5.333H17l-7 5.333H8.435zM17 14l-7-5.333h1.565L17 12.807V14z" fill="#C00"></path>
      </g>
      <path d="M14.28 22.076l-2.654.238.365 2.72-1.835-1.99-1.835 1.99.366-2.72-2.654-.238 2.29-1.402-1.473-2.287 2.49.973.816-2.614.816 2.614 2.49-.973-1.473 2.287zm11.352 2.507l-.64-.994 1.082.423.354-1.136.354 1.136 1.083-.423-.64.994.994.609-1.153.103.16 1.182-.798-.865-.797.865.159-1.182-1.153-.103zm0-17.678l-.64-.994 1.082.423.354-1.136.354 1.136 1.083-.423-.64.994.994.609-1.153.103.16 1.181-.798-.864-.797.864.159-1.181-1.153-.103zm-6.43 7.181l-.64-.993 1.082.422.354-1.135.354 1.135 1.082-.422-.64.993.995.61-1.153.103.159 1.181-.797-.864-.798.864.16-1.181-1.153-.104zM29 17.527l-.63.403.177-.742-.566-.493.74-.056.28-.708.28.708.739.056-.567.493.177.742z"
        fill="#FFF"></path>
    </g>
  </symbol>
  <symbol viewBox="0 0 28 28" xmlns="http://www.w3.org/2000/svg" id="ca">
    <title>Language/ca</title>
    <g fill="none">
      <path fill="#FFF" d="M4.74 0h19.376v30H4.74z"></path>
      <path fill="#BF0A30" d="M-4.946 0H4.74v28.64h-9.687zm28.062 0h9.687v28.64h-9.687zM8.167 13.87l-.671.226 3.121 2.702c.237.694-.081.899-.284 1.263l3.389-.424L13.634 21l.702-.02-.154-3.335 3.393.397c-.21-.438-.397-.67-.203-1.369l3.12-2.56-.546-.194c-.446-.34.193-1.636.29-2.454 0 0-1.822.618-1.942.294l-.463-.878-1.658 1.795c-.18.043-.258-.028-.3-.18l.765-3.75-1.212.672c-.102.043-.203.006-.27-.11L13.99 7l-1.202 2.396c-.091.086-.182.096-.257.037l-1.154-.638.693 3.722c-.056.148-.188.19-.343.11l-1.584-1.775c-.207.327-.348.862-.622.982-.274.112-1.191-.227-1.806-.36.21.748.867 1.99.451 2.397z"></path>
    </g>
  </symbol>
  <symbol viewBox="0 0 28 28" xmlns="http://www.w3.org/2000/svg" id="cn">
    <title>Language/cn</title>
    <g fill="none">
      <path fill="#DE2910" d="M-1 0h45v29H-1z"></path>
      <path d="M3.808 12.683L6.388 5l2.58 7.683L2.21 7.93h8.353zm11.515-8.147l-2.793.785 2.007-2.095-.456 2.606-1.272-2.12zM18.37 8.35l-2.327-.44 2.11-1.074-1.09 2.178-.349-2.45zm-.422 4.28l-1.945-1.35 2.366-.12-1.885 1.545.681-2.382zm-3.841 3.593l-1.71-2.348 2.666 1.154-2.605.48 1.547-1.933z"
        fill="#FFDE00"></path>
    </g>
  </symbol>
  <symbol viewBox="0 0 28 28" xmlns="http://www.w3.org/2000/svg" id="de">
    <title>Language/de</title>
    <g fill="none">
      <path fill="#FFE600" d="M-7 19h41v9H-7z"></path>
      <path fill="#000" d="M-7 0h41v9H-7z"></path>
      <path fill="red" d="M-7 9h41v10H-7z"></path>
    </g>
  </symbol>
  <symbol viewBox="0 0 28 28" xmlns="http://www.w3.org/2000/svg" id="dk">
    <title>Language/dk</title>
    <g fill="none">
      <path fill="#FB1B22" d="M-3-2h39.975v30H-3z"></path>
      <path fill="#FFF" d="M-3 10.857h39.975v4.286H-3z"></path>
      <path fill="#FFF" d="M9.965-2h4.322v30H9.965z"></path>
    </g>
  </symbol>
  <symbol viewBox="0 0 28 28" xmlns="http://www.w3.org/2000/svg" id="gb">
    <title>Language/gb</title>
    <g fill="none">
      <path fill="#006" d="M-14 0h54.947v27.946H-14z"></path>
      <path d="M-9.5 2.289v2.675L32.293 26.22h5.26v-2.676L-4.239 2.29H-9.5zm47.053 0v2.675L-4.239 26.22H-9.5v-2.676L32.293 2.29h5.26z" fill="#FFF"></path>
      <path d="M9.716-.686v28.632h8.486V-.686H9.716zM-13.029 9.92v8.422h53.976V9.919h-53.976z" fill="#FFF"></path>
      <path d="M-13.029 11.367v5.526h53.976v-5.526h-53.976zM11.261-.686v28.632h5.397V-.686H11.26zM-10 26.693l16.03-8.298h3.583l-16.029 8.298H-10zm0-24.894l16.03 8.298H2.444L-10 3.654V1.8zm28.474 8.298l16.03-8.298h3.583l-16.029 8.298h-3.584zm19.613 16.596l-16.029-8.298h3.584l12.445 6.442v1.856z"
        fill="#C00"></path>
    </g>
  </symbol>
  <symbol viewBox="0 0 28 28" xmlns="http://www.w3.org/2000/svg" id="hk">
    <title>Language/hk</title>
    <g fill="none" fill-rule="evenodd">
      <path fill="#BA0000" d="M35 28H-5V0h40z"></path>
      <path d="M13.28 13.584c-.787-.597-1.958-1.873-1.691-4.055.382-1.554 1.056-2.611 2.279-3.187.573-.188 1.158-.268 1.757-.321-.157.156-.289.312-.357.508-.131.353-.034.692.14 1.031.221.393.353.8.395 1.326a2.1 2.1 0 0 1-.777 1.888c-.352.286-.768.384-1.107.71-.263.272-.425.544-.484 1.017-.003.333.027.56.08.738.09.304.14.631-.236.345z"
        fill="#FFF"></path>
      <path d="M13.596 13.666c-1.07-.996-.976-3.5-.161-4.334" stroke="#BA0000" stroke-width=".25"></path>
      <path fill="#BA0000" d="M14.092 8.776l.18.313-.33-.148-.242.267.04-.358-.33-.147.353-.073.039-.359.18.313.353-.075z"></path>
      <path d="M14.214 13.02c.346-.928 1.225-2.405 3.376-2.787 1.597-.09 2.806.246 3.715 1.245.347.493.595 1.03.822 1.586-.196-.104-.383-.184-.591-.191-.376-.023-.672.17-.945.436-.31.326-.66.57-1.152.765a2.1 2.1 0 0 1-2.032-.189c-.377-.253-.593-.622-1.004-.851-.337-.172-.645-.246-1.114-.165-.38.113-.603.226-.765.352-.206.162-.478.252-.31-.201z"
        fill="#FFF"></path>
      <path d="M14.222 13.365c.639-1.315 3.06-1.96 4.097-1.424" stroke="#BA0000" stroke-width=".25"></path>
      <path fill="#BA0000" d="M19.043 12.406l-.246.264.044-.358-.326-.154.354-.067.044-.358.174.316.354-.068-.247.263.175.316z"></path>
      <path d="M14.973 13.97c.087 0 .182.003.281.01 1.003.07 2.555.497 3.54 2.307.593 1.486.66 2.739 0 3.918-.357.486-.787.892-1.243 1.283.037-.218.053-.422-.006-.621-.098-.363-.374-.583-.713-.757a3.085 3.085 0 0 1-1.092-.85 2.1 2.1 0 0 1-.466-1.987c.12-.437.402-.759.488-1.221.056-.375.029-.69-.198-1.11-.267-.382-.467-.557-.667-.668-.187-.103-.098-.305.076-.305z"
        fill="#FFF"></path>
      <path d="M14.756 14.089c1.45.187 2.829 2.279 2.651 3.431" stroke="#BA0000" stroke-width=".25"></path>
      <path fill="#BA0000" d="M17.196 18.355l-.328-.15.354-.071.041-.358.177.314.353-.072-.245.265.177.314-.327-.15-.245.266z"></path>
      <path d="M14.684 15.022c.256.947.417 2.702-1.163 4.276-1.26.986-2.444 1.401-3.761 1.1-.566-.207-1.077-.506-1.58-.833.22-.026.42-.067.594-.18.321-.196.454-.523.527-.897.069-.446.216-.846.508-1.287a2.1 2.1 0 0 1 1.777-1.005c.453-.007.84.172 1.31.125.374-.051.67-.166 1.008-.501.26-.326.378-.553.435-.757.067-.237.304-.193.345-.04z"
        fill="#FFF"></path>
      <path d="M14.496 14.804c.227 1.444-1.392 3.355-2.549 3.509" stroke="#BA0000" stroke-width=".25"></path>
      <path fill="#BA0000" d="M11.087 18.344l.051-.357.168.32.356-.06-.252.256.168.32-.323-.16-.252.257.052-.356-.324-.16z"></path>
      <path d="M13.557 14.759c-.819.553-2.403 1.252-4.384.299-1.348-.86-2.133-1.84-2.286-3.182.006-.603.118-1.183.26-1.767.097.199.203.374.367.5.292.239.644.255 1.021.2a3.07 3.07 0 0 1 1.383.051 2.1 2.1 0 0 1 1.538 1.342c.158.425.117.85.317 1.277.173.337.38.577.808.785.345.12.582.162.778.162.041 0 .59.068.198.333z"
        fill="#FFF"></path>
      <path d="M13.736 14.485c-1.287.694-3.628-.199-4.156-1.239" stroke="#BA0000" stroke-width=".25"></path>
      <path fill="#BA0000" d="M9.264 12.446l.354-.07-.246.264.176.315-.327-.152-.245.265.044-.358-.327-.152.353-.07.043-.358z"></path>
    </g>
  </symbol>
  <symbol viewBox="0 0 28 28" xmlns="http://www.w3.org/2000/svg" id="nl">
    <title>Language/nl</title>
    <g fill="none">
      <path fill="#FFF" d="M-6-1h39v30H-6z"></path>
      <path fill="#21468B" d="M-6 20h39v9H-6z"></path>
      <path fill="#AE1C28" d="M-6-1h39v9H-6z"></path>
    </g>
  </symbol>
  <symbol viewBox="0 0 28 28" xmlns="http://www.w3.org/2000/svg" id="fr">
    <title>Language/fr</title>
    <g fill="none">
      <path fill="#FFF" d="M-6-1h39v29H-6z"></path>
      <path fill="#00267F" d="M-4 0H8v28H-4z"></path>
      <path fill="#F31830" d="M20 1h12v27H20z"></path>
    </g>
  </symbol>
  <symbol viewBox="0 0 28 28" xmlns="http://www.w3.org/2000/svg" id="jp">
    <title>Language/jp</title>
    <g transform="translate(-7)" fill="none">
      <path fill="#FFF" d="M0 0h41v29H0z"></path>
      <circle fill="#D30000" cx="21" cy="14" r="8"></circle>
    </g>
  </symbol>
  <symbol viewBox="0 0 28 28" xmlns="http://www.w3.org/2000/svg" id="nz">
    <title>Language/nz</title>
    <g fill="none">
      <path fill="#00006A" d="M-6-1h39v29H-6z"></path>
      <path fill="#FFF" d="M-6-.993L13.877 17.96h4.077L-1.494-.984z"></path>
      <path fill="red" d="M16.465 17.958L-2.996-.993l-1.515.023 19.543 18.928h1.433z"></path>
      <path fill="#FFF" d="M17.955-.993L-1.922 17.96H-6L13.448-.984z"></path>
      <path fill="red" d="M16.46-.993L-2.993 17.958l-1.514.001L15.028-.993h1.432z"></path>
      <path fill="#FFF" d="M4.061-.993h3.833v18.951H4.061z"></path>
      <path fill="#FFF" d="M-6 6.588h23.953v3.79H-6z"></path>
      <path fill="red" d="M4.9-.993h2.156v18.951H4.9z"></path>
      <path fill="red" d="M-6 7.536h23.953v1.895H-6z"></path>
      <path fill="#FFF" d="M25.846 9.827l-1.208-.886-1.253.822.472-1.42-1.171-.934 1.5.008.528-1.4.456 1.426 1.497.069-1.218.872z"></path>
      <path fill="red" d="M25.361 9.11l-.714-.513-.73.49.268-.837-.694-.541.881-.004.302-.825.276.834.88.031-.71.52z"></path>
      <path fill="#FFF" d="M21.21 17.464L20 16.578l-1.252.822.471-1.42-1.17-.934 1.499.008.529-1.4.455 1.426 1.497.07-1.217.872z"></path>
      <path fill="red" d="M20.725 16.747l-.715-.513-.73.49.268-.836-.693-.542.88-.004.303-.825.275.834.88.032-.71.52z"></path>
      <path d="M30.698 16.711l-1.208-.886-1.253.822.472-1.42-1.17-.934 1.498.009.529-1.4.456 1.425 1.497.07-1.218.872zm-4.96 10.865l-1.208-.886-1.253.822.472-1.42-1.17-.934 1.499.008.528-1.4.456 1.426 1.497.07-1.217.871z" fill="#FFF"></path>
      <path fill="red" d="M25.254 26.859l-.715-.513-.73.49.268-.837-.694-.541.881-.004.302-.825.276.834.88.032-.71.52z"></path>
    </g>
  </symbol>
  <symbol viewBox="0 0 28 28" xmlns="http://www.w3.org/2000/svg" id="pl">
    <title>Language/pl</title>
    <g fill="none">
      <path fill="#FFF" d="M33 29H-6V0h39z"></path>
      <path fill="#DC143C" d="M33 29H-6V14h39z"></path>
    </g>
  </symbol>
  <symbol viewBox="0 0 28 28" xmlns="http://www.w3.org/2000/svg" id="sg">
    <title>Language/sg</title>
    <g fill="none">
      <path fill="#FFF" d="M0 0h44v29H0z"></path>
      <path fill="#DF0000" d="M0 0h44v14.5H0z"></path>
      <path d="M10.148 2.43C8.116 2.89 6.607 4.378 6.18 6.4c-.58 2.747 1.23 5.437 4.014 6.01-2.813.793-5.72-.805-6.514-3.56-.794-2.755.822-5.628 3.61-6.414a5.076 5.076 0 0 1 2.858-.006z" fill="#FFF"></path>
      <path fill="#FFF" d="M9.349 6.643l.299.913L8.858 7l-.787.563.292-.915-.784-.565.97-.009.302-.912.307.91.971.002zm1.073 3.145l.299.914-.79-.558-.787.563.292-.915-.784-.565.97-.008.302-.913.307.91.971.002zm3.57-.022l.3.913-.791-.558-.786.563.292-.915-.784-.565.97-.008.301-.913.308.91.97.002zm1.065-3.12l.3.913-.79-.557-.787.562.292-.914-.784-.566.97-.008.301-.912.308.91.97.001zm-2.827-2.07l.3.914-.79-.558-.787.563.292-.915-.784-.565.97-.008.301-.913.308.91.97.002z"></path>
    </g>
  </symbol>
  <symbol viewBox="0 0 28 28" xmlns="http://www.w3.org/2000/svg" id="us">
    <title>Language/us</title>
    <g fill="none">
      <path d="M-6 0h53.989v2.15H-6zm0 4.299h53.989v2.15H-6zm0 4.3h53.989v2.15H-6zm0 4.299h53.989v2.15H-6zm0 4.299h53.989v2.15H-6zm0 4.3h53.989v2.15H-6zm0 4.299h53.989v2.15H-6z" fill="#BD3D44"></path>
      <path d="M-6 2.15h53.989V4.3H-6zm0 4.299h53.989v2.15H-6zm0 4.3h53.989v2.15H-6zm0 4.299h53.989v2.15H-6zm0 4.299h53.989v2.15H-6zm0 4.3h53.989v2.15H-6z" fill="#FFF"></path>
      <path fill="#192F5D" d="M-6 0h22v15H-6z"></path>
      <path d="M-.425 1.09l.199.614h.642l-.52.38.199.614-.52-.38-.52.38.198-.615-.52-.38h.643zm3.639 0l.199.614h.643l-.52.38.198.614-.52-.38-.52.38.199-.615-.52-.38h.643zm3.639 0l.2.614h.642l-.52.38.199.614-.52-.38-.52.38.198-.615-.52-.38h.643zm3.64 0l.198.614h.643l-.52.38.199.614-.52-.38-.52.38.198-.615-.52-.38h.643zm3.639 0l.199.614h.643l-.52.38.198.614-.52-.38-.52.38.199-.615-.52-.38h.642zM1.394 2.644l.2.614h.642l-.52.38.199.614-.52-.38-.52.38.198-.614-.52-.38h.643zm3.64 0l.199.614h.642l-.52.38.199.614-.52-.38-.52.38.198-.614-.52-.38h.643zm3.639 0l.199.614h.643l-.52.38.198.614-.52-.38-.52.38.199-.614-.52-.38h.643zm3.639 0l.199.614h.643l-.52.38.198.614-.52-.38-.52.38.199-.614-.52-.38h.643zM-.425 4.198l.199.615h.642l-.52.38.199.614-.52-.38-.52.38.198-.614-.52-.38h.643zm3.639 0l.199.615h.643l-.52.38.198.614-.52-.38-.52.38.199-.614-.52-.38h.643zm3.639 0l.2.615h.642l-.52.38.199.614-.52-.38-.52.38.198-.614-.52-.38h.643zm3.64 0l.198.615h.643l-.52.38.199.614-.52-.38-.52.38.198-.614-.52-.38h.643zm3.639 0l.199.615h.643l-.52.38.198.614-.52-.38-.52.38.199-.614-.52-.38h.642zM1.394 5.753l.2.615h.642l-.52.38.199.614-.52-.38-.52.38.198-.615-.52-.38h.643zm3.64 0l.199.615h.642l-.52.38.199.614-.52-.38-.52.38.198-.615-.52-.38h.643zm3.639 0l.199.615h.643l-.52.38.198.614-.52-.38-.52.38.199-.615-.52-.38h.643zm3.639 0l.199.615h.643l-.52.38.198.614-.52-.38-.52.38.199-.615-.52-.38h.643zM-.425 7.308l.199.614h.642l-.52.38.199.615-.52-.38-.52.38.198-.615-.52-.38h.643zm3.639 0l.199.614h.643l-.52.38.198.615-.52-.38-.52.38.199-.615-.52-.38h.643zm3.639 0l.2.614h.642l-.52.38.199.615-.52-.38-.52.38.198-.615-.52-.38h.643zm3.64 0l.198.614h.643l-.52.38.199.615-.52-.38-.52.38.198-.615-.52-.38h.643zm3.639 0l.199.614h.643l-.52.38.198.615-.52-.38-.52.38.199-.615-.52-.38h.642zM1.394 8.862l.2.615h.642l-.52.38.199.614-.52-.38-.52.38.198-.614-.52-.38h.643zm3.64 0l.199.615h.642l-.52.38.199.614-.52-.38-.52.38.198-.614-.52-.38h.643zm3.639 0l.199.615h.643l-.52.38.198.614-.52-.38-.52.38.199-.614-.52-.38h.643zm3.639 0l.199.615h.643l-.52.38.198.614-.52-.38-.52.38.199-.614-.52-.38h.643zM-.425 10.417l.199.615h.642l-.52.38.199.614-.52-.38-.52.38.198-.615-.52-.38h.643zm3.639 0l.199.615h.643l-.52.38.198.614-.52-.38-.52.38.199-.615-.52-.38h.643zm3.639 0l.2.615h.642l-.52.38.199.614-.52-.38-.52.38.198-.615-.52-.38h.643zm3.64 0l.198.615h.643l-.52.38.199.614-.52-.38-.52.38.198-.615-.52-.38h.643zm3.639 0l.199.615h.643l-.52.38.198.614-.52-.38-.52.38.199-.615-.52-.38h.642zM1.394 11.972l.2.614h.642l-.52.38.199.615-.52-.38-.52.38.198-.615-.52-.38h.643zm3.64 0l.199.614h.642l-.52.38.199.615-.52-.38-.52.38.198-.615-.52-.38h.643zm3.639 0l.199.614h.643l-.52.38.198.615-.52-.38-.52.38.199-.615-.52-.38h.643zm3.639 0l.199.614h.643l-.52.38.198.615-.52-.38-.52.38.199-.615-.52-.38h.643zM-.425 13.526l.199.615h.642l-.52.38.199.614-.52-.38-.52.38.198-.614-.52-.38h.643zm3.639 0l.199.615h.643l-.52.38.198.614-.52-.38-.52.38.199-.614-.52-.38h.643zm3.639 0l.2.615h.642l-.52.38.199.614-.52-.38-.52.38.198-.614-.52-.38h.643zm3.64 0l.198.615h.643l-.52.38.199.614-.52-.38-.52.38.198-.614-.52-.38h.643zm3.639 0l.199.615h.643l-.52.38.198.614-.52-.38-.52.38.199-.614-.52-.38h.642z"
        fill="#FFF"></path>
    </g>
  </symbol>
  <symbol viewBox="0 0 28 28" xmlns="http://www.w3.org/2000/svg" id="se">
    <title>Language/se</title>
    <g fill="none">
      <path fill="#006AA7" d="M-5.941.075H8.433v11.164H-5.941zm0 16.728H8.433v11.164H-5.941z"></path>
      <path fill="#FECC00" d="M-5.941 11.232H8.433v5.582H-5.941z"></path>
      <path fill="#FECC00" d="M8.374.059h5.75v27.909h-5.75z"></path>
      <path fill="#FECC00" d="M13.941 11.234h25.873v5.582H13.941z"></path>
      <path fill="#006AA7" d="M14.119 16.804h25.873v11.164H14.119zm0-16.729h25.873v11.164H14.119z"></path>
    </g>
  </symbol>
  <symbol viewBox="0 0 28 28" xmlns="http://www.w3.org/2000/svg" id="it">
    <title>Language/it</title>
    <g fill="none">
      <path fill="#FFF" d="M-5-1h39v29H-5z"></path>
      <path fill="#005700" d="M-5-1H8v29H-5z"></path>
      <path fill="#FC0000" d="M20-1h13v29H20z"></path>
    </g>
  </symbol>
  
  
</svg>