<!-- https://elrumordelaluz.github.io/micro-svg-spreact/ -->
<svg width="0" height="0" class="hidden">
  <symbol xmlns="http://www.w3.org/2000/svg" viewBox="0 0 491.347 99.52" id="logo">
    <path d="M13.349 98.455c-2.252-.103-11.278-.083-13.349 0 .48-7.69.193-65.878.193-65.878 2.206.191 20.74 0 22.661.007 4.61 0 9.603.38 14.061 3.644 3.653 2.686 6.529 6.532 6.529 13.54 0 9.118-5.663 19.589-24.142 19.589-2.88 0-4.42-.189-6.626-.385 0 0 .385 26.312.673 29.483m-.673-34.187c1.73.197 3.361.386 5.088.386 10.757 0 13.35-9.224 13.35-14.311 0-7.583-3.747-13.056-11.716-13.056-2.4 0-4.515.191-6.722.384v26.597m76.316 23.524L84.96 77.61c-4.13-.193-19.978-.193-23.817 0-3.073 7.403-6.147 15.379-7.683 20.845-1.212-.013-7.567-.049-8.932 0L55.665 73.68c9.7-21.704 15.272-34.19 17.578-42.06 1.07.045 5.26.027 6.24 0 4.61 13.153 10.373 26.598 13.828 34.667 3.653 8.35 9.99 22.857 14.309 32.167-1.44-.096-12.839-.013-14.595 0zM73.145 48.037l-9.79 23.627c3.356.097 6.623.386 9.982.386 2.977 0 5.86-.193 8.835-.386l-9.027-23.627m49.608-15.46c.761 0 3.766.04 4.51.007 9.126 10.08 17.672 19.009 29.293 30.343l11.33 11.133c1.829 1.736 2.69 2.4 4.802 4.13 0 0-.477-37.74-1.15-45.613 1.114.04 7.006.04 8.16.007-.865 11.616-.865 63.958-.865 66.354-.673-.016-3.108-.055-3.934 0-12.2-13.251-35.82-36.78-46-46.1 0 13.066.094 20.081.285 30.261.098 5.56.192 6.529.868 15.356-1.059-.03-7.086-.03-8.166 0l.774-13.346c.19-2.59.19-43.6.093-52.532m127.624 60.414c-6.717 4.308-12.957 5.464-20.829 5.464-5.859 0-23.724-.194-26.641 0 0 0 .769-47.339.478-53.392-.194-4.126-.293-8.258-.478-12.486 2.532.191 18.664 0 24.432.007 8.16 0 18.336.375 26.308 6.626 7.396 5.759 11.048 14.402 11.048 24.39 0 13.537-5.279 23.613-14.318 29.391m-35.046-13.445c0 4.414.289 8.92.481 13.349 2.113.096 10.663.477 13.06.477 6.339 0 22.656-4.712 22.656-29.387 0-12.39-5.853-26.318-25.825-26.318-3.267 0-6.63.192-9.891.483-.192 3.838-.481 7.783-.481 11.616v29.78m184.034-9.896c1.439 2.014 3.546 5.184 4.992 7.2 7.579 10.652 10.175 14.012 16.222 21.605-2.607-.045-13.428-.162-16.323 0-1.437-2.203-3.553-5.756-4.99-7.977-4.9-7.575-10.855-16.033-16.043-23.324h-2.299s.381 28.807.381 31.3c-1.922-.193-10.945-.292-13.061 0 .773-18.908.87-53.488.195-65.877 2.213.191 23.236 0 25.445.007 6.243 0 10.95.767 15.081 4.703 2.876 2.788 4.414 6.717 4.414 10.752 0 10.66-7.968 16.136-16.71 17.773zm-18.441-7.012c1.824.1 4.121.29 6.63.29 9.597 0 13.149-7.012 13.149-13.254 0-4.032-.671-7.493-4.034-9.987-2.592-1.924-5.757-2.4-8.924-2.4-1.825 0-5.378.381-6.821.476v24.875m91.788 25.154l-4.035-10.182c-4.134-.193-19.976-.193-23.817 0-3.073 7.403-6.148 15.379-7.683 20.845-1.37-.08-7.588-.006-8.933 0l11.143-24.774c9.697-21.704 15.268-34.19 17.574-42.06 1.056-.01 5.192.045 6.239 0 4.61 13.153 10.37 26.598 13.827 34.667 3.653 8.35 9.989 22.857 14.314 32.167-1.426-.006-12.869-.096-14.598 0zm-15.848-39.755l-9.797 23.627c3.364.097 6.628.386 9.988.386 2.978 0 5.857-.193 8.833-.386l-9.024-23.627m-105.828 16.33c0 21.416-14.5 35.153-35.701 35.153-19.978 0-35.822-11.821-35.822-32.846 0-24.396 16.707-35.149 36.103-35.149 17.852 0 35.42 9.79 35.42 32.842m-35.701 30.245c16.209 0 22.548-15.355 22.548-29.095 0-15.655-5.858-29.096-22.548-29.096-16.526 0-22.664 15.94-22.664 29.096 0 14.306 6.138 29.095 22.664 29.095m2.309-74.056a2.299 2.299 0 1 1-2.295-2.302 2.298 2.298 0 0 1 2.295 2.302m-7.154.51a2.302 2.302 0 0 1-4.603 0 2.302 2.302 0 0 1 4.603 0m14.287 0c0 1.272-1.025 2.3-2.298 2.3a2.296 2.296 0 0 1-2.299-2.3 2.299 2.299 0 1 1 4.597 0m-.992 4.497a53.225 53.225 0 0 0-8.169-.625c-3.041 0-5.892.229-8.67.669l.951 3.226s3.396-.572 7.719-.572c4.328 0 7.144.532 7.144.532l1.025-3.23m-5.702-9.21L315.36.002l-2.732 16.364a57.735 57.735 0 0 1 2.742-.065c.822 0 1.894.022 2.712.052M299.55 1.396l4.842 15.872a59.877 59.877 0 0 1 5.275-.7L299.55 1.396m31.44 0l-4.722 15.872a59.974 59.974 0 0 0-5.276-.7l9.997-15.172"
      fill="#231f20"></path>
  </symbol>
  <symbol viewBox="0 0 28 28" xmlns="http://www.w3.org/2000/svg" id="at">
    <path fill="#FFF" d="M-6-1h39v29H-6z"></path>
    <path fill="#DF0000" d="M-6 18h39v10H-6zm0-19h39V9H-6z"></path>
  </symbol>
  <symbol viewBox="0 0 28 28" xmlns="http://www.w3.org/2000/svg" id="au">
    <title>Language/au</title>
    <g fill="none" fill-rule="evenodd">
      <path fill="#006" fill-rule="nonzero" d="M-4-2h39v32H-4z"></path>
      <g fill-rule="nonzero">
        <path d="M-4-2v1.789L14.652 14H17v-1.789L-1.652-1.999-4-2zm21 0v1.789L-1.652 14H-4v-1.789L14.652-2H17z" fill="#FFF"></path>
        <path d="M4.75-2v16h3.5V-2h-3.5zM-4 3.333v5.334h21V3.333H-4z" fill="#FFF"></path>
        <path d="M-4 4.4v3.2h21V4.4H-4zM5.45-2v16h2.1V-2h-2.1zM-4 14l7-5.333h1.565l-7 5.333H-4zm0-16l7 5.333H1.435L-4-.807V-2zM8.435 3.333l7-5.333H17l-7 5.333H8.435zM17 14l-7-5.333h1.565L17 12.807V14z" fill="#C00"></path>
      </g>
      <path d="M14.28 22.076l-2.654.238.365 2.72-1.835-1.99-1.835 1.99.366-2.72-2.654-.238 2.29-1.402-1.473-2.287 2.49.973.816-2.614.816 2.614 2.49-.973-1.473 2.287zm11.352 2.507l-.64-.994 1.082.423.354-1.136.354 1.136 1.083-.423-.64.994.994.609-1.153.103.16 1.182-.798-.865-.797.865.159-1.182-1.153-.103zm0-17.678l-.64-.994 1.082.423.354-1.136.354 1.136 1.083-.423-.64.994.994.609-1.153.103.16 1.181-.798-.864-.797.864.159-1.181-1.153-.103zm-6.43 7.181l-.64-.993 1.082.422.354-1.135.354 1.135 1.082-.422-.64.993.995.61-1.153.103.159 1.181-.797-.864-.798.864.16-1.181-1.153-.104zM29 17.527l-.63.403.177-.742-.566-.493.74-.056.28-.708.28.708.739.056-.567.493.177.742z"
        fill="#FFF"></path>
    </g>
  </symbol>
  <symbol viewBox="0 0 28 28" xmlns="http://www.w3.org/2000/svg" id="ca">
    <title>Language/ca</title>
    <g fill="none">
      <path fill="#FFF" d="M4.74 0h19.376v30H4.74z"></path>
      <path fill="#BF0A30" d="M-4.946 0H4.74v28.64h-9.687zm28.062 0h9.687v28.64h-9.687zM8.167 13.87l-.671.226 3.121 2.702c.237.694-.081.899-.284 1.263l3.389-.424L13.634 21l.702-.02-.154-3.335 3.393.397c-.21-.438-.397-.67-.203-1.369l3.12-2.56-.546-.194c-.446-.34.193-1.636.29-2.454 0 0-1.822.618-1.942.294l-.463-.878-1.658 1.795c-.18.043-.258-.028-.3-.18l.765-3.75-1.212.672c-.102.043-.203.006-.27-.11L13.99 7l-1.202 2.396c-.091.086-.182.096-.257.037l-1.154-.638.693 3.722c-.056.148-.188.19-.343.11l-1.584-1.775c-.207.327-.348.862-.622.982-.274.112-1.191-.227-1.806-.36.21.748.867 1.99.451 2.397z"></path>
    </g>
  </symbol>
  <symbol viewBox="0 0 28 28" xmlns="http://www.w3.org/2000/svg" id="cn">
    <title>Language/cn</title>
    <g fill="none">
      <path fill="#DE2910" d="M-1 0h45v29H-1z"></path>
      <path d="M3.808 12.683L6.388 5l2.58 7.683L2.21 7.93h8.353zm11.515-8.147l-2.793.785 2.007-2.095-.456 2.606-1.272-2.12zM18.37 8.35l-2.327-.44 2.11-1.074-1.09 2.178-.349-2.45zm-.422 4.28l-1.945-1.35 2.366-.12-1.885 1.545.681-2.382zm-3.841 3.593l-1.71-2.348 2.666 1.154-2.605.48 1.547-1.933z"
        fill="#FFDE00"></path>
    </g>
  </symbol>
  <symbol viewBox="0 0 28 28" xmlns="http://www.w3.org/2000/svg" id="de">
    <title>Language/de</title>
    <g fill="none">
      <path fill="#FFE600" d="M-7 19h41v9H-7z"></path>
      <path fill="#000" d="M-7 0h41v9H-7z"></path>
      <path fill="red" d="M-7 9h41v10H-7z"></path>
    </g>
  </symbol>
  <symbol viewBox="0 0 28 28" xmlns="http://www.w3.org/2000/svg" id="dk">
    <title>Language/dk</title>
    <g fill="none">
      <path fill="#FB1B22" d="M-3-2h39.975v30H-3z"></path>
      <path fill="#FFF" d="M-3 10.857h39.975v4.286H-3z"></path>
      <path fill="#FFF" d="M9.965-2h4.322v30H9.965z"></path>
    </g>
  </symbol>
  <symbol viewBox="0 0 28 28" xmlns="http://www.w3.org/2000/svg" id="gb">
    <title>Language/gb</title>
    <g fill="none">
      <path fill="#006" d="M-14 0h54.947v27.946H-14z"></path>
      <path d="M-9.5 2.289v2.675L32.293 26.22h5.26v-2.676L-4.239 2.29H-9.5zm47.053 0v2.675L-4.239 26.22H-9.5v-2.676L32.293 2.29h5.26z" fill="#FFF"></path>
      <path d="M9.716-.686v28.632h8.486V-.686H9.716zM-13.029 9.92v8.422h53.976V9.919h-53.976z" fill="#FFF"></path>
      <path d="M-13.029 11.367v5.526h53.976v-5.526h-53.976zM11.261-.686v28.632h5.397V-.686H11.26zM-10 26.693l16.03-8.298h3.583l-16.029 8.298H-10zm0-24.894l16.03 8.298H2.444L-10 3.654V1.8zm28.474 8.298l16.03-8.298h3.583l-16.029 8.298h-3.584zm19.613 16.596l-16.029-8.298h3.584l12.445 6.442v1.856z"
        fill="#C00"></path>
    </g>
  </symbol>
  <symbol viewBox="0 0 28 28" xmlns="http://www.w3.org/2000/svg" id="hk">
    <title>Language/hk</title>
    <g fill="none" fill-rule="evenodd">
      <path fill="#BA0000" d="M35 28H-5V0h40z"></path>
      <path d="M13.28 13.584c-.787-.597-1.958-1.873-1.691-4.055.382-1.554 1.056-2.611 2.279-3.187.573-.188 1.158-.268 1.757-.321-.157.156-.289.312-.357.508-.131.353-.034.692.14 1.031.221.393.353.8.395 1.326a2.1 2.1 0 0 1-.777 1.888c-.352.286-.768.384-1.107.71-.263.272-.425.544-.484 1.017-.003.333.027.56.08.738.09.304.14.631-.236.345z"
        fill="#FFF"></path>
      <path d="M13.596 13.666c-1.07-.996-.976-3.5-.161-4.334" stroke="#BA0000" stroke-width=".25"></path>
      <path fill="#BA0000" d="M14.092 8.776l.18.313-.33-.148-.242.267.04-.358-.33-.147.353-.073.039-.359.18.313.353-.075z"></path>
      <path d="M14.214 13.02c.346-.928 1.225-2.405 3.376-2.787 1.597-.09 2.806.246 3.715 1.245.347.493.595 1.03.822 1.586-.196-.104-.383-.184-.591-.191-.376-.023-.672.17-.945.436-.31.326-.66.57-1.152.765a2.1 2.1 0 0 1-2.032-.189c-.377-.253-.593-.622-1.004-.851-.337-.172-.645-.246-1.114-.165-.38.113-.603.226-.765.352-.206.162-.478.252-.31-.201z"
        fill="#FFF"></path>
      <path d="M14.222 13.365c.639-1.315 3.06-1.96 4.097-1.424" stroke="#BA0000" stroke-width=".25"></path>
      <path fill="#BA0000" d="M19.043 12.406l-.246.264.044-.358-.326-.154.354-.067.044-.358.174.316.354-.068-.247.263.175.316z"></path>
      <path d="M14.973 13.97c.087 0 .182.003.281.01 1.003.07 2.555.497 3.54 2.307.593 1.486.66 2.739 0 3.918-.357.486-.787.892-1.243 1.283.037-.218.053-.422-.006-.621-.098-.363-.374-.583-.713-.757a3.085 3.085 0 0 1-1.092-.85 2.1 2.1 0 0 1-.466-1.987c.12-.437.402-.759.488-1.221.056-.375.029-.69-.198-1.11-.267-.382-.467-.557-.667-.668-.187-.103-.098-.305.076-.305z"
        fill="#FFF"></path>
      <path d="M14.756 14.089c1.45.187 2.829 2.279 2.651 3.431" stroke="#BA0000" stroke-width=".25"></path>
      <path fill="#BA0000" d="M17.196 18.355l-.328-.15.354-.071.041-.358.177.314.353-.072-.245.265.177.314-.327-.15-.245.266z"></path>
      <path d="M14.684 15.022c.256.947.417 2.702-1.163 4.276-1.26.986-2.444 1.401-3.761 1.1-.566-.207-1.077-.506-1.58-.833.22-.026.42-.067.594-.18.321-.196.454-.523.527-.897.069-.446.216-.846.508-1.287a2.1 2.1 0 0 1 1.777-1.005c.453-.007.84.172 1.31.125.374-.051.67-.166 1.008-.501.26-.326.378-.553.435-.757.067-.237.304-.193.345-.04z"
        fill="#FFF"></path>
      <path d="M14.496 14.804c.227 1.444-1.392 3.355-2.549 3.509" stroke="#BA0000" stroke-width=".25"></path>
      <path fill="#BA0000" d="M11.087 18.344l.051-.357.168.32.356-.06-.252.256.168.32-.323-.16-.252.257.052-.356-.324-.16z"></path>
      <path d="M13.557 14.759c-.819.553-2.403 1.252-4.384.299-1.348-.86-2.133-1.84-2.286-3.182.006-.603.118-1.183.26-1.767.097.199.203.374.367.5.292.239.644.255 1.021.2a3.07 3.07 0 0 1 1.383.051 2.1 2.1 0 0 1 1.538 1.342c.158.425.117.85.317 1.277.173.337.38.577.808.785.345.12.582.162.778.162.041 0 .59.068.198.333z"
        fill="#FFF"></path>
      <path d="M13.736 14.485c-1.287.694-3.628-.199-4.156-1.239" stroke="#BA0000" stroke-width=".25"></path>
      <path fill="#BA0000" d="M9.264 12.446l.354-.07-.246.264.176.315-.327-.152-.245.265.044-.358-.327-.152.353-.07.043-.358z"></path>
    </g>
  </symbol>
  <symbol viewBox="0 0 28 28" xmlns="http://www.w3.org/2000/svg" id="nl">
    <title>Language/nl</title>
    <g fill="none">
      <path fill="#FFF" d="M-6-1h39v30H-6z"></path>
      <path fill="#21468B" d="M-6 20h39v9H-6z"></path>
      <path fill="#AE1C28" d="M-6-1h39v9H-6z"></path>
    </g>
  </symbol>
  <symbol viewBox="0 0 28 28" xmlns="http://www.w3.org/2000/svg" id="fr">
    <title>Language/fr</title>
    <g fill="none">
      <path fill="#FFF" d="M-6-1h39v29H-6z"></path>
      <path fill="#00267F" d="M-4 0H8v28H-4z"></path>
      <path fill="#F31830" d="M20 1h12v27H20z"></path>
    </g>
  </symbol>
  <symbol viewBox="0 0 28 28" xmlns="http://www.w3.org/2000/svg" id="jp">
    <title>Language/jp</title>
    <g transform="translate(-7)" fill="none">
      <path fill="#FFF" d="M0 0h41v29H0z"></path>
      <circle fill="#D30000" cx="21" cy="14" r="8"></circle>
    </g>
  </symbol>
  <symbol viewBox="0 0 28 28" xmlns="http://www.w3.org/2000/svg" id="nz">
    <title>Language/nz</title>
    <g fill="none">
      <path fill="#00006A" d="M-6-1h39v29H-6z"></path>
      <path fill="#FFF" d="M-6-.993L13.877 17.96h4.077L-1.494-.984z"></path>
      <path fill="red" d="M16.465 17.958L-2.996-.993l-1.515.023 19.543 18.928h1.433z"></path>
      <path fill="#FFF" d="M17.955-.993L-1.922 17.96H-6L13.448-.984z"></path>
      <path fill="red" d="M16.46-.993L-2.993 17.958l-1.514.001L15.028-.993h1.432z"></path>
      <path fill="#FFF" d="M4.061-.993h3.833v18.951H4.061z"></path>
      <path fill="#FFF" d="M-6 6.588h23.953v3.79H-6z"></path>
      <path fill="red" d="M4.9-.993h2.156v18.951H4.9z"></path>
      <path fill="red" d="M-6 7.536h23.953v1.895H-6z"></path>
      <path fill="#FFF" d="M25.846 9.827l-1.208-.886-1.253.822.472-1.42-1.171-.934 1.5.008.528-1.4.456 1.426 1.497.069-1.218.872z"></path>
      <path fill="red" d="M25.361 9.11l-.714-.513-.73.49.268-.837-.694-.541.881-.004.302-.825.276.834.88.031-.71.52z"></path>
      <path fill="#FFF" d="M21.21 17.464L20 16.578l-1.252.822.471-1.42-1.17-.934 1.499.008.529-1.4.455 1.426 1.497.07-1.217.872z"></path>
      <path fill="red" d="M20.725 16.747l-.715-.513-.73.49.268-.836-.693-.542.88-.004.303-.825.275.834.88.032-.71.52z"></path>
      <path d="M30.698 16.711l-1.208-.886-1.253.822.472-1.42-1.17-.934 1.498.009.529-1.4.456 1.425 1.497.07-1.218.872zm-4.96 10.865l-1.208-.886-1.253.822.472-1.42-1.17-.934 1.499.008.528-1.4.456 1.426 1.497.07-1.217.871z" fill="#FFF"></path>
      <path fill="red" d="M25.254 26.859l-.715-.513-.73.49.268-.837-.694-.541.881-.004.302-.825.276.834.88.032-.71.52z"></path>
    </g>
  </symbol>
  <symbol viewBox="0 0 28 28" xmlns="http://www.w3.org/2000/svg" id="pl">
    <title>Language/pl</title>
    <g fill="none">
      <path fill="#FFF" d="M33 29H-6V0h39z"></path>
      <path fill="#DC143C" d="M33 29H-6V14h39z"></path>
    </g>
  </symbol>
  <symbol viewBox="0 0 28 28" xmlns="http://www.w3.org/2000/svg" id="sg">
    <title>Language/sg</title>
    <g fill="none">
      <path fill="#FFF" d="M0 0h44v29H0z"></path>
      <path fill="#DF0000" d="M0 0h44v14.5H0z"></path>
      <path d="M10.148 2.43C8.116 2.89 6.607 4.378 6.18 6.4c-.58 2.747 1.23 5.437 4.014 6.01-2.813.793-5.72-.805-6.514-3.56-.794-2.755.822-5.628 3.61-6.414a5.076 5.076 0 0 1 2.858-.006z" fill="#FFF"></path>
      <path fill="#FFF" d="M9.349 6.643l.299.913L8.858 7l-.787.563.292-.915-.784-.565.97-.009.302-.912.307.91.971.002zm1.073 3.145l.299.914-.79-.558-.787.563.292-.915-.784-.565.97-.008.302-.913.307.91.971.002zm3.57-.022l.3.913-.791-.558-.786.563.292-.915-.784-.565.97-.008.301-.913.308.91.97.002zm1.065-3.12l.3.913-.79-.557-.787.562.292-.914-.784-.566.97-.008.301-.912.308.91.97.001zm-2.827-2.07l.3.914-.79-.558-.787.563.292-.915-.784-.565.97-.008.301-.913.308.91.97.002z"></path>
    </g>
  </symbol>
  <symbol viewBox="0 0 28 28" xmlns="http://www.w3.org/2000/svg" id="us">
    <title>Language/us</title>
    <g fill="none">
      <path d="M-6 0h53.989v2.15H-6zm0 4.299h53.989v2.15H-6zm0 4.3h53.989v2.15H-6zm0 4.299h53.989v2.15H-6zm0 4.299h53.989v2.15H-6zm0 4.3h53.989v2.15H-6zm0 4.299h53.989v2.15H-6z" fill="#BD3D44"></path>
      <path d="M-6 2.15h53.989V4.3H-6zm0 4.299h53.989v2.15H-6zm0 4.3h53.989v2.15H-6zm0 4.299h53.989v2.15H-6zm0 4.299h53.989v2.15H-6zm0 4.3h53.989v2.15H-6z" fill="#FFF"></path>
      <path fill="#192F5D" d="M-6 0h22v15H-6z"></path>
      <path d="M-.425 1.09l.199.614h.642l-.52.38.199.614-.52-.38-.52.38.198-.615-.52-.38h.643zm3.639 0l.199.614h.643l-.52.38.198.614-.52-.38-.52.38.199-.615-.52-.38h.643zm3.639 0l.2.614h.642l-.52.38.199.614-.52-.38-.52.38.198-.615-.52-.38h.643zm3.64 0l.198.614h.643l-.52.38.199.614-.52-.38-.52.38.198-.615-.52-.38h.643zm3.639 0l.199.614h.643l-.52.38.198.614-.52-.38-.52.38.199-.615-.52-.38h.642zM1.394 2.644l.2.614h.642l-.52.38.199.614-.52-.38-.52.38.198-.614-.52-.38h.643zm3.64 0l.199.614h.642l-.52.38.199.614-.52-.38-.52.38.198-.614-.52-.38h.643zm3.639 0l.199.614h.643l-.52.38.198.614-.52-.38-.52.38.199-.614-.52-.38h.643zm3.639 0l.199.614h.643l-.52.38.198.614-.52-.38-.52.38.199-.614-.52-.38h.643zM-.425 4.198l.199.615h.642l-.52.38.199.614-.52-.38-.52.38.198-.614-.52-.38h.643zm3.639 0l.199.615h.643l-.52.38.198.614-.52-.38-.52.38.199-.614-.52-.38h.643zm3.639 0l.2.615h.642l-.52.38.199.614-.52-.38-.52.38.198-.614-.52-.38h.643zm3.64 0l.198.615h.643l-.52.38.199.614-.52-.38-.52.38.198-.614-.52-.38h.643zm3.639 0l.199.615h.643l-.52.38.198.614-.52-.38-.52.38.199-.614-.52-.38h.642zM1.394 5.753l.2.615h.642l-.52.38.199.614-.52-.38-.52.38.198-.615-.52-.38h.643zm3.64 0l.199.615h.642l-.52.38.199.614-.52-.38-.52.38.198-.615-.52-.38h.643zm3.639 0l.199.615h.643l-.52.38.198.614-.52-.38-.52.38.199-.615-.52-.38h.643zm3.639 0l.199.615h.643l-.52.38.198.614-.52-.38-.52.38.199-.615-.52-.38h.643zM-.425 7.308l.199.614h.642l-.52.38.199.615-.52-.38-.52.38.198-.615-.52-.38h.643zm3.639 0l.199.614h.643l-.52.38.198.615-.52-.38-.52.38.199-.615-.52-.38h.643zm3.639 0l.2.614h.642l-.52.38.199.615-.52-.38-.52.38.198-.615-.52-.38h.643zm3.64 0l.198.614h.643l-.52.38.199.615-.52-.38-.52.38.198-.615-.52-.38h.643zm3.639 0l.199.614h.643l-.52.38.198.615-.52-.38-.52.38.199-.615-.52-.38h.642zM1.394 8.862l.2.615h.642l-.52.38.199.614-.52-.38-.52.38.198-.614-.52-.38h.643zm3.64 0l.199.615h.642l-.52.38.199.614-.52-.38-.52.38.198-.614-.52-.38h.643zm3.639 0l.199.615h.643l-.52.38.198.614-.52-.38-.52.38.199-.614-.52-.38h.643zm3.639 0l.199.615h.643l-.52.38.198.614-.52-.38-.52.38.199-.614-.52-.38h.643zM-.425 10.417l.199.615h.642l-.52.38.199.614-.52-.38-.52.38.198-.615-.52-.38h.643zm3.639 0l.199.615h.643l-.52.38.198.614-.52-.38-.52.38.199-.615-.52-.38h.643zm3.639 0l.2.615h.642l-.52.38.199.614-.52-.38-.52.38.198-.615-.52-.38h.643zm3.64 0l.198.615h.643l-.52.38.199.614-.52-.38-.52.38.198-.615-.52-.38h.643zm3.639 0l.199.615h.643l-.52.38.198.614-.52-.38-.52.38.199-.615-.52-.38h.642zM1.394 11.972l.2.614h.642l-.52.38.199.615-.52-.38-.52.38.198-.615-.52-.38h.643zm3.64 0l.199.614h.642l-.52.38.199.615-.52-.38-.52.38.198-.615-.52-.38h.643zm3.639 0l.199.614h.643l-.52.38.198.615-.52-.38-.52.38.199-.615-.52-.38h.643zm3.639 0l.199.614h.643l-.52.38.198.615-.52-.38-.52.38.199-.615-.52-.38h.643zM-.425 13.526l.199.615h.642l-.52.38.199.614-.52-.38-.52.38.198-.614-.52-.38h.643zm3.639 0l.199.615h.643l-.52.38.198.614-.52-.38-.52.38.199-.614-.52-.38h.643zm3.639 0l.2.615h.642l-.52.38.199.614-.52-.38-.52.38.198-.614-.52-.38h.643zm3.64 0l.198.615h.643l-.52.38.199.614-.52-.38-.52.38.198-.614-.52-.38h.643zm3.639 0l.199.615h.643l-.52.38.198.614-.52-.38-.52.38.199-.614-.52-.38h.642z"
        fill="#FFF"></path>
    </g>
  </symbol>
  <symbol viewBox="0 0 28 28" xmlns="http://www.w3.org/2000/svg" id="se">
    <title>Language/se</title>
    <g fill="none">
      <path fill="#006AA7" d="M-5.941.075H8.433v11.164H-5.941zm0 16.728H8.433v11.164H-5.941z"></path>
      <path fill="#FECC00" d="M-5.941 11.232H8.433v5.582H-5.941z"></path>
      <path fill="#FECC00" d="M8.374.059h5.75v27.909h-5.75z"></path>
      <path fill="#FECC00" d="M13.941 11.234h25.873v5.582H13.941z"></path>
      <path fill="#006AA7" d="M14.119 16.804h25.873v11.164H14.119zm0-16.729h25.873v11.164H14.119z"></path>
    </g>
  </symbol>
  <symbol viewBox="0 0 28 28" xmlns="http://www.w3.org/2000/svg" id="it">
    <title>Language/it</title>
    <g fill="none">
      <path fill="#FFF" d="M-5-1h39v29H-5z"></path>
      <path fill="#005700" d="M-5-1H8v29H-5z"></path>
      <path fill="#FC0000" d="M20-1h13v29H20z"></path>
    </g>
  </symbol>
  
  
</svg>