<?xml version="1.0" encoding="UTF-8"?>
<svg width="28px" height="28px" viewBox="0 0 28 28" version="1.1" xmlns="http://www.w3.org/2000/svg" xmlns:xlink="http://www.w3.org/1999/xlink">
    <!-- Generator: Sketch 51.2 (57519) - http://www.bohemiancoding.com/sketch -->
    <title>Language/au</title>
    <desc>Created with Sketch.</desc>
    <defs></defs>
    <g id="Design" stroke="none" stroke-width="1" fill="none" fill-rule="evenodd">
        <g id="Language-slide-in" transform="translate(-29.000000, -101.000000)">
            <g id="Slide-in">
                <g id="Countries" transform="translate(29.000000, 101.000000)">
                    <g id="Australia">
                        <g id="Language/au">
                            <rect id="rect124" fill="#000066" fill-rule="nonzero" x="-4" y="-2" width="39" height="32"></rect>
                            <g id="g584" transform="translate(-4.000000, -2.000000)" fill-rule="nonzero">
                                <path d="M-1.02343023e-14,0 L-9.6125774e-15,1.78885333 L18.6522,16.0000533 L21,16.0000533 L21,14.2112533 L2.3478,5.33333333e-05 L-1.02343023e-14,0 Z M21,0 L21,1.7888 L2.3478,16 L-1.02343023e-14,16 L-1.02343023e-14,14.2112 L18.6522,0 L21,0 Z" id="path146" fill="#FFFFFF"></path>
                                <path d="M8.75,0 L8.75,16 L12.25,16 L12.25,0 L8.75,0 Z M0,5.33333333 L0,10.6666667 L21,10.6666667 L21,5.33333333 L0,5.33333333 Z" id="path136" fill="#FFFFFF"></path>
                                <path d="M0,6.4 L0,9.6 L21,9.6 L21,6.4 L0,6.4 Z M9.45,0 L9.45,16 L11.55,16 L11.55,0 L9.45,0 Z" id="path141" fill="#CC0000"></path>
                                <path d="M4.23838742e-16,16 L7,10.6666667 L8.5652,10.6666667 L1.5652,16 L4.23838742e-16,16 Z M-1.02343023e-14,0 L7,5.33333333 L5.4348,5.33333333 L-1.02343023e-14,1.19258667 L-1.02343023e-14,0 Z M12.4348,5.33333333 L19.4348,0 L21,0 L14,5.33333333 L12.4348,5.33333333 Z M21,16 L14,10.6666667 L15.5652,10.6666667 L21,14.8074667 L21,16 Z" id="path150" fill="#CC0000"></path>
                            </g>
                            <g id="g3045" transform="translate(6.000000, 5.000000)" fill="#FFFFFF">
                                <polygon id="polygon589" points="8.27912169 17.0759039 5.6256342 17.3137632 5.99121119 20.033886 4.15627784 18.0433278 2.32134449 20.033886 2.68692148 17.3137632 0.0334339862 17.0759039 2.32369395 15.674423 0.850108549 13.3873884 3.34054306 14.3596567 4.15627784 11.745626 4.15627784 11.745626 4.97201261 14.3596567 7.46244713 13.3873884 5.98886173 15.674423"></polygon>
                                <g id="g596" transform="translate(12.172552, 0.046691)">
                                    <polygon id="polygon590" points="7.45939288 19.53624 6.81893072 18.5427153 7.90137178 18.9652285 8.25546933 17.8293929 8.25546933 17.8293929 8.60956688 18.9652285 9.69200794 18.5427153 9.05154579 19.53624 10.0465342 20.1452601 8.89378804 20.2486786 9.05283185 21.430036 8.25546933 20.5655634 7.45810681 21.430036 7.61715063 20.2486786 6.46440448 20.1452601"></polygon>
                                    <polygon id="polygon592" points="7.45939288 1.85795318 6.81893072 0.864295903 7.90137178 1.28680907 8.25546933 0.151150245 8.25546933 0.151150245 8.60956688 1.28680907 9.69200794 0.864295903 9.05154579 1.85795318 10.0465342 2.46688481 8.89378804 2.57030331 9.05283185 3.75166074 8.25546933 2.88718819 7.45810681 3.75166074 7.61715063 2.57030331 6.46440448 2.46688481"></polygon>
                                    <polygon id="polygon593" points="1.02904996 9.03970473 0.388587805 8.04618004 1.47102886 8.46869321 1.82512641 7.3328576 1.82512641 7.3328576 2.17922396 8.46869321 3.26166502 8.04618004 2.62120287 9.03970473 3.61619126 9.64872476 2.46344512 9.75214326 2.62248893 10.9335007 1.82512641 10.0690281 1.02776389 10.9335007 1.18680771 9.75214326 0.0340615652 9.64872476"></polygon>
                                    <polygon id="polygon595" points="10.8276065 12.4803585 10.1974329 12.8829835 10.3744817 12.1409337 9.8081828 11.648149 10.5476722 11.5920202 10.8276065 10.8844432 10.8276065 10.8844432 11.1075408 11.5920202 11.8470302 11.648149 11.2807313 12.1409337 11.4577801 12.8829835"></polygon>
                                </g>
                            </g>
                        </g>
                    </g>
                </g>
            </g>
        </g>
    </g>
</svg>