<?xml version="1.0" encoding="UTF-8"?>
<svg width="28px" height="28px" viewBox="0 0 28 28" version="1.1" xmlns="http://www.w3.org/2000/svg" xmlns:xlink="http://www.w3.org/1999/xlink">
    <!-- Generator: Sketch 51.2 (57519) - http://www.bohemiancoding.com/sketch -->
    <title>Language/ca</title>
    <desc>Created with Sketch.</desc>
    <defs></defs>
    <g id="Design" stroke="none" stroke-width="1" fill="none" fill-rule="evenodd">
        <g id="Language-slide-in" transform="translate(-29.000000, -163.000000)" fill-rule="nonzero">
            <g id="Slide-in">
                <g id="Countries" transform="translate(29.000000, 101.000000)">
                    <g id="Canada-1" transform="translate(0.000000, 62.000000)">
                        <g id="Language/ca">
                            <g id="flag" transform="translate(-5.000000, 0.000000)">
                                <g id="g3531" transform="translate(0.018646, -0.000000)">
                                    <rect id="mat" fill="#FFFFFF" x="9.72215875" y="0" width="19.3747651" height="30"></rect>
                                    <rect id="left" fill="#BF0A30" x="0.0348140311" y="0" width="9.68738256" height="28.6401369"></rect>
                                    <rect id="right" fill="#BF0A30" x="28.0969617" y="0" width="9.68738256" height="28.6401369"></rect>
                                </g>
                                <path d="M13.166561,13.8703441 L12.4956619,14.0964573 L15.6174628,16.7980026 C15.8536248,17.4923176 15.5355069,17.6969815 15.3328159,18.0611159 L18.7218891,17.636965 L18.6336186,21 L19.335566,20.9800904 L19.1824901,17.6449897 L22.5749018,18.0415403 C22.3649472,17.6043485 22.1780998,17.372197 22.37233,16.6731322 L25.4920801,14.1136572 L24.946137,13.918789 C24.4997771,13.5791466 25.1389984,12.2829823 25.2354292,11.4649849 C25.2354292,11.4649849 23.4137904,12.0826919 23.2944145,11.7594809 L22.8305465,10.8807709 L21.1733059,12.675907 C20.992239,12.7186626 20.9151049,12.6475988 20.8726389,12.496779 L21.6382566,8.74557847 L20.4259452,9.41793153 C20.3244494,9.46072285 20.2229585,9.4238048 20.1560689,9.30717221 L18.9899721,7 L17.7876285,9.39605431 C17.6969734,9.48191253 17.6062611,9.49186356 17.5309775,9.4334779 L16.3766132,8.79493766 L17.0695466,12.51684 C17.0144515,12.6646053 16.8824035,12.7061871 16.7271243,12.6261979 L15.1429496,10.8515188 C14.9357325,11.1789012 14.7952858,11.7138162 14.5213651,11.8336894 C14.2474397,11.9459254 13.329991,11.6068708 12.7150836,11.4745023 C12.9251575,12.2220054 13.5819538,13.4638623 13.1663273,13.8708858 L13.166561,13.8703441 Z" id="leaf" fill="#BF0A30"></path>
                            </g>
                        </g>
                    </g>
                </g>
            </g>
        </g>
    </g>
</svg>