<?xml version="1.0" encoding="UTF-8"?>
<svg width="28px" height="28px" viewBox="0 0 28 28" version="1.1" xmlns="http://www.w3.org/2000/svg" xmlns:xlink="http://www.w3.org/1999/xlink">
    <!-- Generator: Sketch 51.2 (57519) - http://www.bohemiancoding.com/sketch -->
    <title>Language/gb</title>
    <desc>Created with Sketch.</desc>
    <defs></defs>
    <g id="Design" stroke="none" stroke-width="1" fill="none" fill-rule="evenodd">
        <g id="Language-slide-in" transform="translate(-29.000000, -27.000000)" fill-rule="nonzero">
            <g id="Active_LanguageTab">
                <g id="Language/gb" transform="translate(29.000000, 27.000000)">
                    <g id="flag" transform="translate(-14.000000, -1.000000)">
                        <rect id="rect124" fill="#000066" x="0" y="1" width="54.9474146" height="27.9459649"></rect>
                        <g id="g584">
                            <path d="M4.5,3.28868386 L4.5,5.96426608 L46.2928965,27.2199125 L51.553475,27.2199125 L51.553475,24.5444101 L9.76057851,3.28876364 L4.5,3.28868386 Z M51.553475,3.28868386 L51.553475,5.96418631 L9.76057851,27.2198328 L4.5,27.2198328 L4.5,24.5443303 L46.2928965,3.28868386 L51.553475,3.28868386 Z" id="path146" fill="#FFFFFF"></path>
                            <path d="M23.7162379,0.31414664 L23.7162379,28.9459649 L32.2023681,28.9459649 L32.2023681,0.31414664 L23.7162379,0.31414664 Z M0.971191406,10.9194497 L0.971191406,19.3406619 L54.9474146,19.3406619 L54.9474146,10.9194497 L0.971191406,10.9194497 Z" id="path136" fill="#FFFFFF"></path>
                            <path d="M0.971191406,12.3668739 L0.971191406,17.8932376 L54.9474146,17.8932376 L54.9474146,12.3668739 L0.971191406,12.3668739 Z M25.2604919,0.31414664 L25.2604919,28.9459649 L30.6581142,28.9459649 L30.6581142,0.31414664 L25.2604919,0.31414664 Z" id="path141" fill="#CC0000"></path>
                            <path d="M4,27.6926623 L20.0291521,19.3946892 L23.6132706,19.3946892 L7.58411842,27.6926623 L4,27.6926623 Z M4,2.79874295 L20.0291521,11.0967161 L16.4450337,11.0967161 L4,4.65425272 L4,2.79874295 Z M32.4741859,11.0967161 L48.503338,2.79874295 L52.0874564,2.79874295 L36.0583043,11.0967161 L32.4741859,11.0967161 Z M52.0874564,27.6926623 L36.0583043,19.3946892 L39.6424227,19.3946892 L52.0874564,25.8372355 L52.0874564,27.6926623 Z" id="path150" fill="#CC0000"></path>
                        </g>
                    </g>
                </g>
            </g>
        </g>
    </g>
</svg>