<?xml version="1.0" encoding="UTF-8"?>
<svg width="28px" height="28px" viewBox="0 0 28 28" version="1.1" xmlns="http://www.w3.org/2000/svg" xmlns:xlink="http://www.w3.org/1999/xlink">
    <!-- Generator: Sketch 51.2 (57519) - http://www.bohemiancoding.com/sketch -->
    <title>Language/hk</title>
    <desc>Created with Sketch.</desc>
    <defs></defs>
    <g id="Design" stroke="none" stroke-width="1" fill="none" fill-rule="evenodd">
        <g id="Language-slide-in" transform="translate(-29.000000, -554.000000)">
            <g id="Slide-in">
                <g id="Countries" transform="translate(29.000000, 101.000000)">
                    <g id="Hong-Kong-1" transform="translate(0.000000, 453.000000)">
                        <g id="Language/hk">
                            <g id="flag" transform="translate(-5.000000, 0.000000)">
                                <rect id="rect148" fill="#BA0000" transform="translate(20.000000, 14.000000) rotate(180.000000) translate(-20.000000, -14.000000) " x="0" y="0" width="40" height="28"></rect>
                                <g id="g694" transform="translate(10.000000, 6.000000)">
                                    <g id="g669" transform="translate(6.544825, 0.009638)">
                                        <path d="M1.73437851,7.57456232 C0.947979173,6.97700263 -0.223039235,5.70106857 0.0438087,3.51914619 C0.42584256,1.9658333 1.10064318,0.908046123 2.3229609,0.332290984 C2.89592004,0.144806234 3.48167352,0.0644611352 4.0800747,0.0109105869 C3.92302326,0.167128601 3.79148718,0.323346616 3.72359286,0.519737179 C3.59198346,0.872345758 3.68960904,1.21157634 3.8635974,1.55076836 C4.0842906,1.94354949 4.21579002,2.34970862 4.25827896,2.87638539 C4.3388943,3.61730292 4.03758576,4.33150299 3.4816002,4.76445667 C3.1292976,5.05009815 2.71342656,5.14829343 2.37384498,5.47410746 C2.11073616,5.74640949 1.94946882,6.01871152 1.89004296,6.49176064 C1.88690326,6.82459254 1.916741,7.05159647 1.96994221,7.22934878 C2.06085766,7.53310938 2.11099543,7.86074147 1.73437851,7.57456232 Z" id="path573" fill="#FFFFFF"></path>
                                        <path d="M2.051127,7.65630194 C0.9813882,6.66085546 1.0748712,4.15720348 1.889823,3.3225243" id="path575" stroke="#BA0000" stroke-width="0.25"></path>
                                        <polygon id="polygon638" fill="#BA0000" transform="translate(2.387246, 2.745458) rotate(-11.847997) translate(-2.387246, -2.745458) " points="2.53938348 2.79918147 2.65126169 3.14161735 2.65126169 3.14161735 2.3592259 2.9296986 2.06719011 3.1415665 2.17911932 2.79918147 1.88677757 2.58766948 2.2479596 2.58802539 2.35927689 2.24543697 2.47059418 2.58802539 2.83177621 2.58777117"></polygon>
                                    </g>
                                    <g id="g674" transform="translate(12.855740, 6.720165) rotate(72.961216) translate(-12.855740, -6.720165) translate(10.355740, 2.720165)">
                                        <path d="M1.71953876,7.56924251 C0.933355306,6.96682168 -0.220867413,5.69331173 0.044256963,3.52548229 C0.42629217,1.97216393 1.10109517,0.914373015 2.3234172,0.338615845 C2.89637836,0.151130435 3.48213391,0.0707850525 4.0805372,0.0172343154 C3.9234852,0.173452881 3.79194866,0.329671446 3.7240541,0.526062702 C3.59244423,0.878672524 3.69007016,1.2179043 3.86405913,1.55709752 C4.08475311,1.94988003 4.21625299,2.35604059 4.25874208,2.88271923 C4.33935771,3.62363936 4.03804811,4.33784196 3.48206059,4.77079716 C3.12975674,5.05643965 2.71388424,5.15463527 2.37430146,5.48045045 C2.11119171,5.75275344 1.9499238,6.02505644 1.89049773,6.49810722 C1.88676206,6.89411667 1.9297113,7.14030944 2.00315194,7.33198133 C2.09691661,7.57669667 2.10361506,7.86354475 1.71953876,7.56924251 Z" id="path675" fill="#FFFFFF"></path>
                                        <path d="M2.05158234,7.66265263 C0.981839769,6.66720264 1.0753231,4.16354183 1.89027777,3.32885971" id="path677" stroke="#BA0000" stroke-width="0.25"></path>
                                        <polygon id="polygon678" fill="#BA0000" transform="translate(2.387701, 2.751790) rotate(-11.847997) translate(-2.387701, -2.751790) " points="2.53984024 2.80551545 2.65171884 3.14795254 2.65171884 3.14795254 2.35968203 2.93603305 2.06764521 3.14790169 2.17957481 2.80551545 1.88723203 2.59400271 2.24841534 2.59435863 2.35973302 2.251769 2.4710507 2.59435863 2.83223401 2.5941044"></polygon>
                                    </g>
                                    <g id="g679" transform="translate(11.518816, 11.326406) rotate(144.443673) translate(-11.518816, -11.326406) translate(9.018816, 7.326406)">
                                        <path d="M1.80548715,7.63030032 C1.73451978,7.57957444 1.66018289,7.52108267 1.58328885,7.45759061 C0.807614643,6.81710987 -0.206191446,5.56779689 0.0440026288,3.5220473 C0.426034499,1.96874251 1.1008316,0.910960842 2.32314296,0.335208702 C2.89609911,0.147724929 3.48184954,0.0673802486 4.0802476,0.0138299792 C3.92319698,0.17004718 3.79166159,0.32626438 3.72376762,0.522653921 C3.59215891,0.875260663 3.68978398,1.21448948 3.86377143,1.55367973 C4.08446348,1.94645882 4.21596222,2.35261583 4.25845093,2.87928986 C4.33906585,3.62020352 4.03775888,4.33439988 3.48177622,4.7673513 C3.12947546,5.05299129 2.71360658,5.15118606 2.37402677,5.47699839 C2.11091932,5.74929901 1.94965282,6.02159962 1.89022727,6.49464628 C1.88582698,6.96111111 1.94620163,7.2197065 2.0448852,7.42618004 C2.13694142,7.61878732 1.94679944,7.73130715 1.80548715,7.63030032 Z" id="path680" fill="#FFFFFF"></path>
                                        <path d="M2.05131047,7.65918151 C0.981577245,6.66374021 1.07505976,4.16010127 1.89000731,3.32542644" id="path682" stroke="#BA0000" stroke-width="0.25"></path>
                                        <polygon id="polygon683" fill="#BA0000" transform="translate(2.387431, 2.748365) rotate(-11.847997) translate(-2.387431, -2.748365) " points="2.53956485 2.80208571 2.65144248 3.14451981 2.65144248 3.14451981 2.35940821 2.93260217 2.06737395 3.14446896 2.17930257 2.80208571 1.88696235 2.59057482 2.24814249 2.59093073 2.35945921 2.2483441 2.47077592 2.59093073 2.83195606 2.59067651"></polygon>
                                    </g>
                                    <g id="g684" transform="translate(6.888845, 11.398387) rotate(-141.866169) translate(-6.888845, -11.398387) translate(4.388845, 7.398387)">
                                        <path d="M1.76881597,7.59501666 C0.982739391,7.00897376 -0.227317691,5.7277492 0.0434907848,3.51344287 C0.42552438,1.96013106 1.10032453,0.90234461 2.32264141,0.326589869 C2.89560015,0.13910525 3.48135322,0.0587602061 4.07975399,0.00520969482 C3.92270266,0.161427601 3.79116667,0.317645507 3.7232724,0.514035935 C3.59166309,0.866644269 3.6892886,1.20587461 3.86327684,1.5450664 C4.08396989,1.93784726 4.21546922,2.34400611 4.25795813,2.87068252 C4.33857341,3.61159953 4.03726508,4.32579911 3.4812799,4.75875249 C3.12897755,5.04439377 2.7131068,5.14258898 2.37352545,5.46840278 C2.11041681,5.74070463 1.94914959,6.01300647 1.88972377,6.48605526 C1.88579083,6.90297691 1.93360381,7.15384057 2.01426579,7.34985118 C2.10803805,7.5777201 1.89502036,7.68910569 1.76881597,7.59501666 Z" id="path685" fill="#FFFFFF"></path>
                                        <path d="M2.05080769,7.65059575 C0.981069635,6.65514997 1.07455257,4.15149971 1.88950381,3.31682112" id="path687" stroke="#BA0000" stroke-width="0.25"></path>
                                        <polygon id="polygon688" fill="#BA0000" transform="translate(2.386927, 2.739755) rotate(-11.847997) translate(-2.386927, -2.739755) " points="2.53906389 2.79347856 2.65094203 3.13591421 2.65094203 3.13591421 2.35890644 2.92399561 2.06687086 3.13586336 2.17879998 2.79347856 1.88645844 2.58196672 2.24764022 2.58232263 2.35895743 2.23973445 2.47027465 2.58232263 2.83145643 2.58206841"></polygon>
                                    </g>
                                    <g id="g689" transform="translate(5.418866, 6.886611) rotate(-71.272253) translate(-5.418866, -6.886611) translate(2.918866, 2.886611)">
                                        <path d="M1.73420636,7.57268986 C0.947811491,6.9751157 -0.223140499,5.69919681 0.0436998811,3.5173362 C0.425731764,1.96403136 1.10052889,0.906249653 2.32284028,0.330497493 C2.89579646,0.143013715 3.48154691,0.0626690315 4.07994499,0.00911876032 C3.92289436,0.165335966 3.79135896,0.321553172 3.72346499,0.517942719 C3.59185627,0.870549472 3.68948135,1.2097783 3.86346881,1.54896857 C4.08416087,1.94174766 4.21565961,2.34790468 4.25814833,2.87457873 C4.33876325,3.61549242 4.03745627,4.3296888 3.48147359,4.76264024 C3.12917281,5.04828024 2.71330392,5.14647501 2.3737241,5.47228735 C2.11061664,5.74458798 1.94935014,6.0168886 1.88992458,6.48993527 C1.88647734,6.85536982 1.92278478,7.09322747 1.98612184,7.27839298 C1.99961402,7.31783729 2.11084805,7.85889639 1.73420636,7.57268986 Z" id="path690" fill="#FFFFFF"></path>
                                        <path d="M2.05100779,7.65447054 C0.981274528,6.65902921 1.07475704,4.15539019 1.88970463,3.32071533" id="path692" stroke="#BA0000" stroke-width="0.25"></path>
                                        <polygon id="polygon693" fill="#BA0000" transform="translate(2.387128, 2.743654) rotate(-11.847997) translate(-2.387128, -2.743654) " points="2.53926218 2.79737459 2.65113981 3.1398087 2.65113981 3.1398087 2.35910554 2.92789105 2.06707126 3.13975785 2.17899989 2.79737459 1.88665966 2.58586369 2.24783982 2.5862196 2.35915653 2.24363296 2.47047325 2.5862196 2.83165341 2.58596538"></polygon>
                                    </g>
                                </g>
                            </g>
                        </g>
                    </g>
                </g>
            </g>
        </g>
    </g>
</svg>