<?xml version="1.0" encoding="UTF-8"?>
<svg width="28px" height="28px" viewBox="0 0 28 28" version="1.1" xmlns="http://www.w3.org/2000/svg" xmlns:xlink="http://www.w3.org/1999/xlink">
    <!-- Generator: Sketch 51.2 (57519) - http://www.bohemiancoding.com/sketch -->
    <title>Language/nz</title>
    <desc>Created with Sketch.</desc>
    <defs></defs>
    <g id="Design" stroke="none" stroke-width="1" fill="none" fill-rule="evenodd">
        <g id="Language-slide-in" transform="translate(-29.000000, -878.000000)" fill-rule="nonzero">
            <g id="Slide-in">
                <g id="Countries" transform="translate(29.000000, 101.000000)">
                    <g id="New-Zealand" transform="translate(0.000000, 777.000000)">
                        <g id="Language/nz">
                            <rect id="rect580" fill="#00006A" x="-6" y="-1" width="39" height="29"></rect>
                            <g id="g560" transform="translate(-6.000000, -1.000000)">
                                <polygon id="path572" fill="#FFFFFF" points="2.73758885e-05 0.0073244686 19.8769754 18.9590884 23.9542088 18.9590884 4.50644328 0.0162669678"></polygon>
                                <polygon id="path577" fill="#FF0000" transform="translate(11.976873, 9.482707) rotate(-180.000000) translate(-11.976873, -9.482707) " points="1.48898819 0.00736851798 20.9502032 18.9583824 22.4647588 18.9352322 2.9220434 0.00703192355 1.48902682 0.00703192355"></polygon>
                                <polygon id="path581" fill="#FFFFFF" transform="translate(11.977474, 9.483206) scale(-1, 1) translate(-11.977474, -9.483206) " points="0.000383542578 0.0073244686 19.8773315 18.9590884 23.954565 18.9590884 4.50679945 0.0162669678"></polygon>
                                <polygon id="path579" fill="#FF0000" transform="translate(11.976696, 9.483290) scale(-1, 1) translate(-11.976696, -9.483290) " points="1.49289729 0.00740870455 20.9465284 18.9584226 22.4604938 18.9591706 2.92539405 0.00740870455 1.49293591 0.00740870455"></polygon>
                                <rect id="rect570" fill="#FFFFFF" x="10.0607666" y="0.00741942149" width="3.83255749" height="18.9513223"></rect>
                                <rect id="rect569" fill="#FFFFFF" x="0.000412682927" y="7.58790909" width="23.9531707" height="3.79026446"></rect>
                                <rect id="rect574" fill="#FF0000" x="10.8995122" y="0.00741942149" width="2.15581882" height="18.9513223"></rect>
                                <rect id="rect575" fill="#FF0000" x="0.000412599303" y="8.53586777" width="23.9531707" height="1.89513223"></rect>
                            </g>
                            <g id="g8203" transform="translate(18.000000, 6.000000)">
                                <g id="g591" transform="translate(4.661351, 0.009973)">
                                    <polygon id="polygon589" fill="#FFFFFF" points="3.18450341 3.81672093 1.97639922 2.93070561 0.723875409 3.75271118 1.19549121 2.3328983 0.0246775707 1.39862948 1.52397709 1.4071094 2.0526255 0.00764834464 2.50833797 1.43265859 4.00544393 1.50202984 2.7880171 2.37425845"></polygon>
                                    <polygon id="polygon590" fill="#FF0000" transform="translate(1.985724, 1.990294) rotate(2.772134) translate(-1.985724, -1.990294) " points="2.75292281 3.06363338 2.01424069 2.58585792 1.30846201 3.11084742 1.5360441 2.26236242 0.817104048 1.75493458 1.69672254 1.70832234 1.95830485 0.869739699 2.27417783 1.68944766 3.15434471 1.67861524 2.47105005 2.23183468"></polygon>
                                </g>
                                <g id="g594" transform="translate(0.024978, 7.647291)">
                                    <polygon id="polygon595" fill="#FFFFFF" points="3.18450341 3.81672093 1.97639922 2.93070561 0.723875409 3.75271118 1.19549121 2.3328983 0.0246775707 1.39862948 1.52397709 1.4071094 2.0526255 0.00764834464 2.50833797 1.43265859 4.00544393 1.50202984 2.7880171 2.37425845"></polygon>
                                    <polygon id="polygon596" fill="#FF0000" transform="translate(1.985724, 1.990294) rotate(2.772134) translate(-1.985724, -1.990294) " points="2.75292281 3.06363338 2.01424069 2.58585792 1.30846201 3.11084742 1.5360441 2.26236242 0.817104048 1.75493458 1.69672254 1.70832234 1.95830485 0.869739699 2.27417783 1.68944766 3.15434471 1.67861524 2.47105005 2.23183468"></polygon>
                                </g>
                                <g id="g597" transform="translate(9.513373, 6.894582)" fill="#FFFFFF">
                                    <polygon id="polygon598" points="3.18450341 3.81672093 1.97639922 2.93070561 0.723875409 3.75271118 1.19549121 2.3328983 0.0246775707 1.39862948 1.52397709 1.4071094 2.0526255 0.00764834464 2.50833797 1.43265859 4.00544393 1.50202984 2.7880171 2.37425845"></polygon>
                                </g>
                                <g id="g600" transform="translate(4.553526, 17.759029)">
                                    <polygon id="polygon601" fill="#FFFFFF" points="3.18450341 3.81672093 1.97639922 2.93070561 0.723875409 3.75271118 1.19549121 2.3328983 0.0246775707 1.39862948 1.52397709 1.4071094 2.0526255 0.00764834464 2.50833797 1.43265859 4.00544393 1.50202984 2.7880171 2.37425845"></polygon>
                                    <polygon id="polygon602" fill="#FF0000" transform="translate(1.985724, 1.990294) rotate(2.772134) translate(-1.985724, -1.990294) " points="2.75292281 3.06363338 2.01424069 2.58585792 1.30846201 3.11084742 1.5360441 2.26236242 0.817104048 1.75493458 1.69672254 1.70832234 1.95830485 0.869739699 2.27417783 1.68944766 3.15434471 1.67861524 2.47105005 2.23183468"></polygon>
                                </g>
                            </g>
                        </g>
                    </g>
                </g>
            </g>
        </g>
    </g>
</svg>