<?xml version="1.0" encoding="UTF-8"?>
<svg width="28px" height="28px" viewBox="0 0 28 28" version="1.1" xmlns="http://www.w3.org/2000/svg" xmlns:xlink="http://www.w3.org/1999/xlink">
    <!-- Generator: Sketch 51.2 (57519) - http://www.bohemiancoding.com/sketch -->
    <title>Language/sg</title>
    <desc>Created with Sketch.</desc>
    <defs></defs>
    <g id="Design" stroke="none" stroke-width="1" fill="none" fill-rule="evenodd">
        <g id="Language-slide-in" transform="translate(-29.000000, -1073.000000)" fill-rule="nonzero">
            <g id="Slide-in">
                <g id="Countries" transform="translate(29.000000, 101.000000)">
                    <g id="Singapore" transform="translate(0.000000, 972.000000)">
                        <g id="Language/sg">
                            <g id="flag">
                                <g id="g15168" transform="translate(0.000031, -0.000000)">
                                    <rect id="rect149" fill="#FFFFFF" x="0" y="1.36594532e-07" width="44" height="29"></rect>
                                    <rect id="rect148" fill="#DF0000" x="0" y="1.36594532e-07" width="44" height="14.5"></rect>
                                    <path d="M10.1475,2.43039258 C8.1159375,2.89088086 6.60647396,4.37803711 6.17970833,6.39982422 C5.59985937,9.14689453 7.40953125,11.8367578 10.1939062,12.4105273 C7.38088542,13.2034961 4.47453646,11.6050977 3.67984375,8.85009766 C2.88560938,6.09509766 4.5024375,3.22160547 7.28921875,2.43611328 C8.26747396,2.16030742 9.16809896,2.15857422 10.1476146,2.43039598 L10.1475,2.43039258 Z" id="path141" fill="#FFFFFF"></path>
                                    <polygon id="polygon142" fill="#FFFFFF" points="9.34870951 6.64299534 9.64782322 7.55640851 9.64782322 7.55640851 8.8575253 6.99875363 8.07102324 7.56166232 8.36330441 6.64674806 7.57907986 6.08158773 8.54930152 6.07333174 8.85069276 5.16066912 9.15815736 6.07108011 10.1291382 6.0725812"></polygon>
                                    <polygon id="polygon144" fill="#FFFFFF" points="10.4217824 9.78824924 10.7208961 10.7016624 10.7208961 10.7016624 9.93059822 10.1440075 9.14409616 10.7069162 9.43637733 9.79200197 8.65215278 9.22684164 9.62237444 9.21858565 9.92376567 8.30592302 10.2312303 9.21633401 11.2022111 9.2178351"></polygon>
                                    <polygon id="polygon145" fill="#FFFFFF" points="13.9921991 9.76559299 14.2913128 10.6790062 14.2913128 10.6790062 13.5010149 10.1213513 12.7145128 10.68426 13.006794 9.76934572 12.2225694 9.20418539 13.1927911 9.1959294 13.4941823 8.28326677 13.8016469 9.19367776 14.7726278 9.19517885"></polygon>
                                    <polygon id="polygon146" fill="#FFFFFF" points="15.0572512 6.64582737 15.3563649 7.55924054 15.3563649 7.55924054 14.566067 7.00158566 13.7795649 7.56449435 14.0718461 6.64958009 13.2876215 6.08441977 14.2578432 6.07616377 14.5592344 5.16350115 14.866699 6.07391214 15.8376799 6.07541323"></polygon>
                                    <polygon id="polygon147" fill="#FFFFFF" points="12.2304803 4.57617893 12.5295941 5.4895921 12.5295941 5.4895921 11.7392961 4.93193722 10.9527941 5.49484591 11.2450752 4.57993165 10.4608507 4.01477133 11.4310724 4.00651533 11.7324636 3.09385271 12.0399282 4.0042637 13.010909 4.00576479"></polygon>
                                </g>
                            </g>
                        </g>
                    </g>
                </g>
            </g>
        </g>
    </g>
</svg>