<?xml version="1.0" encoding="UTF-8"?>
<svg width="28px" height="28px" viewBox="0 0 28 28" version="1.1" xmlns="http://www.w3.org/2000/svg" xmlns:xlink="http://www.w3.org/1999/xlink">
    <!-- Generator: Sketch 51.2 (57519) - http://www.bohemiancoding.com/sketch -->
    <title>Language/us</title>
    <desc>Created with Sketch.</desc>
    <defs></defs>
    <g id="Design" stroke="none" stroke-width="1" fill="none" fill-rule="evenodd">
        <g id="Language-slide-in" transform="translate(-29.000000, -1269.000000)" fill-rule="nonzero">
            <g id="Slide-in">
                <g id="Countries" transform="translate(29.000000, 101.000000)">
                    <g id="US-1" transform="translate(0.000000, 1168.000000)">
                        <g id="Language/us">
                            <g id="flag" transform="translate(-6.000000, 0.000000)">
                                <g id="g390">
                                    <g id="g169" fill="#BD3D44">
                                        <rect id="rect156" x="0" y="0" width="53.9894275" height="2.14966862"></rect>
                                        <rect id="rect158" x="0" y="4.29933723" width="53.9894275" height="2.14966862"></rect>
                                        <rect id="rect160" x="0" y="8.59867446" width="53.9894275" height="2.14966862"></rect>
                                        <rect id="rect162" x="0" y="12.8980117" width="53.9894275" height="2.14966862"></rect>
                                        <rect id="rect164" x="0" y="17.1973489" width="53.9894275" height="2.14966862"></rect>
                                        <rect id="rect166" x="0" y="21.4966862" width="53.9894275" height="2.14966862"></rect>
                                        <rect id="rect168" x="0" y="25.7960234" width="53.9894275" height="2.14966862"></rect>
                                    </g>
                                    <g id="g177" transform="translate(0.000000, 2.149669)" fill="#FFFFFF">
                                        <rect id="rect157" x="0" y="0" width="53.9894275" height="2.14966862"></rect>
                                        <rect id="rect159" x="0" y="4.29933723" width="53.9894275" height="2.14966862"></rect>
                                        <rect id="rect161" x="0" y="8.59867446" width="53.9894275" height="2.14966862"></rect>
                                        <rect id="rect163" x="0" y="12.8980117" width="53.9894275" height="2.14966862"></rect>
                                        <rect id="rect165" x="0" y="17.1973489" width="53.9894275" height="2.14966862"></rect>
                                        <rect id="rect167" x="0" y="21.4966862" width="53.9894275" height="2.14966862"></rect>
                                    </g>
                                </g>
                                <rect id="rect200" fill="#192F5D" x="0" y="0" width="22" height="15"></rect>
                                <g id="g274" transform="translate(1.000000, 1.000000)" fill="#FFFFFF">
                                    <g id="g218">
                                        <g id="g194">
                                            <polygon id="polygon188" points="4.5748936 0.0891135477 4.77356995 0.703586176 5.41649721 0.703586176 4.8963517 1.08335012 5.09503911 1.69782052 4.5748936 1.31805881 4.05474809 1.69782052 4.25343549 1.08335012 3.73328998 0.703586176 4.37621724 0.703586176"></polygon>
                                            <polygon id="polygon189" points="8.21425461 0.0891135477 8.41293096 0.703586176 9.05585822 0.703586176 8.53571271 1.08335012 8.73440012 1.69782052 8.21425461 1.31805881 7.69410909 1.69782052 7.8927965 1.08335012 7.37265099 0.703586176 8.01557825 0.703586176"></polygon>
                                            <polygon id="polygon190" points="11.8533946 0.0891135477 12.052071 0.703586176 12.6949982 0.703586176 12.1748527 1.08335012 12.3735401 1.69782052 11.8533946 1.31805881 11.3332491 1.69782052 11.5319365 1.08335012 11.011791 0.703586176 11.6547182 0.703586176"></polygon>
                                            <polygon id="polygon191" points="15.4927556 0.0891135477 15.691432 0.703586176 16.3343592 0.703586176 15.8142137 1.08335012 16.0129011 1.69782052 15.4927556 1.31805881 14.9726101 1.69782052 15.1712975 1.08335012 14.651152 0.703586176 15.2940793 0.703586176"></polygon>
                                            <polygon id="polygon192" points="19.1321166 0.0891135477 19.330793 0.703586176 19.9737202 0.703586176 19.4535747 1.08335012 19.6522621 1.69782052 19.1321166 1.31805881 18.6119711 1.69782052 18.8106585 1.08335012 18.290513 0.703586176 18.9334403 0.703586176"></polygon>
                                        </g>
                                        <g id="g205" transform="translate(1.899641, 1.554671)">
                                            <polygon id="polygon201" points="4.49482251 0.0891135477 4.69349887 0.703586176 5.33642613 0.703586176 4.81628061 1.08335012 5.01496802 1.69782052 4.49482251 1.31805881 3.974677 1.69782052 4.17336441 1.08335012 3.6532189 0.703586176 4.29614615 0.703586176"></polygon>
                                            <polygon id="polygon202" points="8.13418352 0.0891135477 8.33285988 0.703586176 8.97578713 0.703586176 8.45564162 1.08335012 8.65432903 1.69782052 8.13418352 1.31805881 7.61403801 1.69782052 7.81272542 1.08335012 7.2925799 0.703586176 7.93550716 0.703586176"></polygon>
                                            <polygon id="polygon203" points="11.7735445 0.0891135477 11.9722209 0.703586176 12.6151481 0.703586176 12.0950026 1.08335012 12.29369 1.69782052 11.7735445 1.31805881 11.253399 1.69782052 11.4520864 1.08335012 10.9319409 0.703586176 11.5748682 0.703586176"></polygon>
                                            <polygon id="polygon204" points="15.4126845 0.0891135477 15.6113609 0.703586176 16.2542881 0.703586176 15.7341426 1.08335012 15.93283 1.69782052 15.4126845 1.31805881 14.892539 1.69782052 15.0912264 1.08335012 14.5710809 0.703586176 15.2140082 0.703586176"></polygon>
                                        </g>
                                    </g>
                                    <g id="g232" transform="translate(0.000000, 3.109342)">
                                        <g id="g233">
                                            <polygon id="polygon235" points="4.5748936 0.0891135477 4.77356995 0.703586176 5.41649721 0.703586176 4.8963517 1.08335012 5.09503911 1.69782052 4.5748936 1.31805881 4.05474809 1.69782052 4.25343549 1.08335012 3.73328998 0.703586176 4.37621724 0.703586176"></polygon>
                                            <polygon id="polygon236" points="8.21425461 0.0891135477 8.41293096 0.703586176 9.05585822 0.703586176 8.53571271 1.08335012 8.73440012 1.69782052 8.21425461 1.31805881 7.69410909 1.69782052 7.8927965 1.08335012 7.37265099 0.703586176 8.01557825 0.703586176"></polygon>
                                            <polygon id="polygon237" points="11.8533946 0.0891135477 12.052071 0.703586176 12.6949982 0.703586176 12.1748527 1.08335012 12.3735401 1.69782052 11.8533946 1.31805881 11.3332491 1.69782052 11.5319365 1.08335012 11.011791 0.703586176 11.6547182 0.703586176"></polygon>
                                            <polygon id="polygon238" points="15.4927556 0.0891135477 15.691432 0.703586176 16.3343592 0.703586176 15.8142137 1.08335012 16.0129011 1.69782052 15.4927556 1.31805881 14.9726101 1.69782052 15.1712975 1.08335012 14.651152 0.703586176 15.2940793 0.703586176"></polygon>
                                            <polygon id="polygon239" points="19.1321166 0.0891135477 19.330793 0.703586176 19.9737202 0.703586176 19.4535747 1.08335012 19.6522621 1.69782052 19.1321166 1.31805881 18.6119711 1.69782052 18.8106585 1.08335012 18.290513 0.703586176 18.9334403 0.703586176"></polygon>
                                        </g>
                                        <g id="g240" transform="translate(1.899641, 1.554671)">
                                            <polygon id="polygon242" points="4.49482251 0.0891135477 4.69349887 0.703586176 5.33642613 0.703586176 4.81628061 1.08335012 5.01496802 1.69782052 4.49482251 1.31805881 3.974677 1.69782052 4.17336441 1.08335012 3.6532189 0.703586176 4.29614615 0.703586176"></polygon>
                                            <polygon id="polygon243" points="8.13418352 0.0891135477 8.33285988 0.703586176 8.97578713 0.703586176 8.45564162 1.08335012 8.65432903 1.69782052 8.13418352 1.31805881 7.61403801 1.69782052 7.81272542 1.08335012 7.2925799 0.703586176 7.93550716 0.703586176"></polygon>
                                            <polygon id="polygon244" points="11.7735445 0.0891135477 11.9722209 0.703586176 12.6151481 0.703586176 12.0950026 1.08335012 12.29369 1.69782052 11.7735445 1.31805881 11.253399 1.69782052 11.4520864 1.08335012 10.9319409 0.703586176 11.5748682 0.703586176"></polygon>
                                            <polygon id="polygon245" points="15.4126845 0.0891135477 15.6113609 0.703586176 16.2542881 0.703586176 15.7341426 1.08335012 15.93283 1.69782052 15.4126845 1.31805881 14.892539 1.69782052 15.0912264 1.08335012 14.5710809 0.703586176 15.2140082 0.703586176"></polygon>
                                        </g>
                                    </g>
                                    <g id="g246" transform="translate(0.000000, 6.218684)">
                                        <g id="g247">
                                            <polygon id="polygon249" points="4.5748936 0.0891135477 4.77356995 0.703586176 5.41649721 0.703586176 4.8963517 1.08335012 5.09503911 1.69782052 4.5748936 1.31805881 4.05474809 1.69782052 4.25343549 1.08335012 3.73328998 0.703586176 4.37621724 0.703586176"></polygon>
                                            <polygon id="polygon250" points="8.21425461 0.0891135477 8.41293096 0.703586176 9.05585822 0.703586176 8.53571271 1.08335012 8.73440012 1.69782052 8.21425461 1.31805881 7.69410909 1.69782052 7.8927965 1.08335012 7.37265099 0.703586176 8.01557825 0.703586176"></polygon>
                                            <polygon id="polygon251" points="11.8533946 0.0891135477 12.052071 0.703586176 12.6949982 0.703586176 12.1748527 1.08335012 12.3735401 1.69782052 11.8533946 1.31805881 11.3332491 1.69782052 11.5319365 1.08335012 11.011791 0.703586176 11.6547182 0.703586176"></polygon>
                                            <polygon id="polygon252" points="15.4927556 0.0891135477 15.691432 0.703586176 16.3343592 0.703586176 15.8142137 1.08335012 16.0129011 1.69782052 15.4927556 1.31805881 14.9726101 1.69782052 15.1712975 1.08335012 14.651152 0.703586176 15.2940793 0.703586176"></polygon>
                                            <polygon id="polygon253" points="19.1321166 0.0891135477 19.330793 0.703586176 19.9737202 0.703586176 19.4535747 1.08335012 19.6522621 1.69782052 19.1321166 1.31805881 18.6119711 1.69782052 18.8106585 1.08335012 18.290513 0.703586176 18.9334403 0.703586176"></polygon>
                                        </g>
                                        <g id="g254" transform="translate(1.899641, 1.554671)">
                                            <polygon id="polygon256" points="4.49482251 0.0891135477 4.69349887 0.703586176 5.33642613 0.703586176 4.81628061 1.08335012 5.01496802 1.69782052 4.49482251 1.31805881 3.974677 1.69782052 4.17336441 1.08335012 3.6532189 0.703586176 4.29614615 0.703586176"></polygon>
                                            <polygon id="polygon257" points="8.13418352 0.0891135477 8.33285988 0.703586176 8.97578713 0.703586176 8.45564162 1.08335012 8.65432903 1.69782052 8.13418352 1.31805881 7.61403801 1.69782052 7.81272542 1.08335012 7.2925799 0.703586176 7.93550716 0.703586176"></polygon>
                                            <polygon id="polygon258" points="11.7735445 0.0891135477 11.9722209 0.703586176 12.6151481 0.703586176 12.0950026 1.08335012 12.29369 1.69782052 11.7735445 1.31805881 11.253399 1.69782052 11.4520864 1.08335012 10.9319409 0.703586176 11.5748682 0.703586176"></polygon>
                                            <polygon id="polygon259" points="15.4126845 0.0891135477 15.6113609 0.703586176 16.2542881 0.703586176 15.7341426 1.08335012 15.93283 1.69782052 15.4126845 1.31805881 14.892539 1.69782052 15.0912264 1.08335012 14.5710809 0.703586176 15.2140082 0.703586176"></polygon>
                                        </g>
                                    </g>
                                    <g id="g260" transform="translate(0.000000, 9.328026)">
                                        <g id="g261">
                                            <polygon id="polygon263" points="4.5748936 0.0891135477 4.77356995 0.703586176 5.41649721 0.703586176 4.8963517 1.08335012 5.09503911 1.69782052 4.5748936 1.31805881 4.05474809 1.69782052 4.25343549 1.08335012 3.73328998 0.703586176 4.37621724 0.703586176"></polygon>
                                            <polygon id="polygon264" points="8.21425461 0.0891135477 8.41293096 0.703586176 9.05585822 0.703586176 8.53571271 1.08335012 8.73440012 1.69782052 8.21425461 1.31805881 7.69410909 1.69782052 7.8927965 1.08335012 7.37265099 0.703586176 8.01557825 0.703586176"></polygon>
                                            <polygon id="polygon265" points="11.8533946 0.0891135477 12.052071 0.703586176 12.6949982 0.703586176 12.1748527 1.08335012 12.3735401 1.69782052 11.8533946 1.31805881 11.3332491 1.69782052 11.5319365 1.08335012 11.011791 0.703586176 11.6547182 0.703586176"></polygon>
                                            <polygon id="polygon266" points="15.4927556 0.0891135477 15.691432 0.703586176 16.3343592 0.703586176 15.8142137 1.08335012 16.0129011 1.69782052 15.4927556 1.31805881 14.9726101 1.69782052 15.1712975 1.08335012 14.651152 0.703586176 15.2940793 0.703586176"></polygon>
                                            <polygon id="polygon267" points="19.1321166 0.0891135477 19.330793 0.703586176 19.9737202 0.703586176 19.4535747 1.08335012 19.6522621 1.69782052 19.1321166 1.31805881 18.6119711 1.69782052 18.8106585 1.08335012 18.290513 0.703586176 18.9334403 0.703586176"></polygon>
                                        </g>
                                        <g id="g268" transform="translate(1.899641, 1.554671)">
                                            <polygon id="polygon270" points="4.49482251 0.0891135477 4.69349887 0.703586176 5.33642613 0.703586176 4.81628061 1.08335012 5.01496802 1.69782052 4.49482251 1.31805881 3.974677 1.69782052 4.17336441 1.08335012 3.6532189 0.703586176 4.29614615 0.703586176"></polygon>
                                            <polygon id="polygon271" points="8.13418352 0.0891135477 8.33285988 0.703586176 8.97578713 0.703586176 8.45564162 1.08335012 8.65432903 1.69782052 8.13418352 1.31805881 7.61403801 1.69782052 7.81272542 1.08335012 7.2925799 0.703586176 7.93550716 0.703586176"></polygon>
                                            <polygon id="polygon272" points="11.7735445 0.0891135477 11.9722209 0.703586176 12.6151481 0.703586176 12.0950026 1.08335012 12.29369 1.69782052 11.7735445 1.31805881 11.253399 1.69782052 11.4520864 1.08335012 10.9319409 0.703586176 11.5748682 0.703586176"></polygon>
                                            <polygon id="polygon273" points="15.4126845 0.0891135477 15.6113609 0.703586176 16.2542881 0.703586176 15.7341426 1.08335012 15.93283 1.69782052 15.4126845 1.31805881 14.892539 1.69782052 15.0912264 1.08335012 14.5710809 0.703586176 15.2140082 0.703586176"></polygon>
                                        </g>
                                    </g>
                                    <g id="g211" transform="translate(0.000000, 12.437368)">
                                        <polygon id="polygon213" points="4.5748936 0.0891135477 4.77356995 0.703586176 5.41649721 0.703586176 4.8963517 1.08335012 5.09503911 1.69782052 4.5748936 1.31805881 4.05474809 1.69782052 4.25343549 1.08335012 3.73328998 0.703586176 4.37621724 0.703586176"></polygon>
                                        <polygon id="polygon214" points="8.21425461 0.0891135477 8.41293096 0.703586176 9.05585822 0.703586176 8.53571271 1.08335012 8.73440012 1.69782052 8.21425461 1.31805881 7.69410909 1.69782052 7.8927965 1.08335012 7.37265099 0.703586176 8.01557825 0.703586176"></polygon>
                                        <polygon id="polygon215" points="11.8533946 0.0891135477 12.052071 0.703586176 12.6949982 0.703586176 12.1748527 1.08335012 12.3735401 1.69782052 11.8533946 1.31805881 11.3332491 1.69782052 11.5319365 1.08335012 11.011791 0.703586176 11.6547182 0.703586176"></polygon>
                                        <polygon id="polygon216" points="15.4927556 0.0891135477 15.691432 0.703586176 16.3343592 0.703586176 15.8142137 1.08335012 16.0129011 1.69782052 15.4927556 1.31805881 14.9726101 1.69782052 15.1712975 1.08335012 14.651152 0.703586176 15.2940793 0.703586176"></polygon>
                                        <polygon id="polygon217" points="19.1321166 0.0891135477 19.330793 0.703586176 19.9737202 0.703586176 19.4535747 1.08335012 19.6522621 1.69782052 19.1321166 1.31805881 18.6119711 1.69782052 18.8106585 1.08335012 18.290513 0.703586176 18.9334403 0.703586176"></polygon>
                                    </g>
                                </g>
                            </g>
                        </g>
                    </g>
                </g>
            </g>
        </g>
    </g>
</svg>